<svg width="28" height="24" viewBox="0 0 28 24" fill="none" xmlns="http://www.w3.org/2000/svg">
<path d="M13.8171 18.5522C12.4363 18.5517 11.0866 18.1418 9.93876 17.3743C8.79088 16.6068 7.89635 15.5162 7.36826 14.2404C6.84017 12.9646 6.70224 11.5608 6.97191 10.2066C7.24158 8.85235 7.90674 7.6085 8.88329 6.63228C9.85983 5.65607 11.1039 4.99133 12.4582 4.72212C13.8125 4.45291 15.2163 4.59132 16.4919 5.11984C17.7676 5.64836 18.8579 6.54326 19.625 7.6914C20.3921 8.83953 20.8015 10.1893 20.8015 11.5701C20.7994 13.4217 20.0628 15.1967 18.7534 16.5057C17.4439 17.8147 15.6686 18.5507 13.8171 18.5522ZM13.8171 5.37773C12.5924 5.3782 11.3953 5.74181 10.3772 6.42258C9.35907 7.10336 8.56569 8.07073 8.09734 9.20239C7.629 10.334 7.50672 11.5792 7.74597 12.7803C7.98522 13.9814 8.57526 15.0847 9.44147 15.9505C10.3077 16.8163 11.4112 17.4059 12.6124 17.6446C13.8137 17.8833 15.0587 17.7605 16.1902 17.2916C17.3216 16.8228 18.2886 16.029 18.969 15.0106C19.6493 13.9921 20.0124 12.7949 20.0123 11.5701C20.0104 9.92791 19.357 8.35352 18.1955 7.19255C17.034 6.03157 15.4593 5.37888 13.8171 5.37773Z" fill="#EAA315"/>
<path d="M19.0724 15.3643C18.4218 14.6074 17.6154 14 16.7084 13.5836C15.8014 13.1672 14.8152 12.9517 13.8171 12.9517C12.8191 12.9517 11.8329 13.1672 10.9258 13.5836C10.0188 14 9.21246 14.6074 8.56189 15.3643L7.96289 14.8513C8.68762 14.0082 9.58591 13.3316 10.5963 12.8677C11.6067 12.4039 12.7054 12.1638 13.8171 12.1638C14.9289 12.1638 16.0276 12.4039 17.038 12.8677C18.0484 13.3316 18.9467 14.0082 19.6714 14.8513L19.0724 15.3643Z" fill="#EAA315"/>
<path d="M13.8171 12.9513C13.3224 12.9513 12.8387 12.8047 12.4273 12.5299C12.0159 12.255 11.6952 11.8644 11.5058 11.4073C11.3165 10.9502 11.2669 10.4473 11.3634 9.96201C11.4599 9.47676 11.6982 9.03102 12.048 8.68118C12.3978 8.33133 12.8436 8.09309 13.3288 7.99659C13.8141 7.90009 14.3171 7.94966 14.7741 8.13903C15.2312 8.3284 15.6219 8.64906 15.8967 9.06047C16.1715 9.47188 16.3182 9.95554 16.3181 10.4503C16.3173 11.1134 16.0536 11.7491 15.5848 12.2179C15.1159 12.6868 14.4802 12.9505 13.8171 12.9513ZM13.8171 8.73814C13.4785 8.73806 13.1474 8.83841 12.8658 9.0265C12.5842 9.21458 12.3647 9.48196 12.235 9.79481C12.1054 10.1077 12.0714 10.4519 12.1374 10.7841C12.2034 11.1162 12.3665 11.4213 12.6059 11.6608C12.8453 11.9003 13.1504 12.0634 13.4826 12.1295C13.8147 12.1956 14.159 12.1617 14.4718 12.0322C14.7847 11.9026 15.0522 11.6831 15.2403 11.4016C15.4285 11.12 15.5289 10.7889 15.5289 10.4503C15.5283 9.9965 15.3477 9.56147 15.0268 9.24059C14.7059 8.91971 14.2709 8.73916 13.8171 8.73853V8.73814Z" fill="#EAA315"/>
<path d="M13.8506 24C11.9157 23.9999 10.0092 23.5337 8.29254 22.6408C6.57587 21.748 5.09952 20.4548 3.98839 18.8706C2.87726 17.2865 2.16406 15.458 1.90911 13.5399C1.65416 11.6218 1.86498 9.6705 2.52372 7.85111C2.56 7.75337 2.63348 7.67395 2.72812 7.63022C2.82276 7.58648 2.93087 7.58197 3.02882 7.61768C3.12677 7.65339 3.20661 7.72641 3.25089 7.8208C3.29518 7.91518 3.30031 8.02326 3.26517 8.12141C2.373 10.5739 2.36205 13.2605 3.2342 15.7202C4.10634 18.1799 5.80722 20.2595 8.04507 21.6022C10.2829 22.945 12.9183 23.4671 15.499 23.0792C18.0798 22.6912 20.4451 21.4173 22.1893 19.476C22.2229 19.4341 22.2647 19.3995 22.3122 19.3743C22.3597 19.3491 22.4118 19.3339 22.4653 19.3296C22.5189 19.3253 22.5727 19.332 22.6236 19.3492C22.6745 19.3665 22.7213 19.3939 22.7612 19.4299C22.8011 19.4658 22.8333 19.5096 22.8557 19.5584C22.8781 19.6073 22.8903 19.6601 22.8915 19.7139C22.8928 19.7676 22.883 19.821 22.8629 19.8708C22.8428 19.9206 22.8127 19.9658 22.7745 20.0035C21.6517 21.2598 20.2766 22.265 18.7389 22.9537C17.2012 23.6423 15.5355 23.9989 13.8506 24Z" fill="#EAA315"/>
<path d="M20.4736 2.81407C20.3925 2.81412 20.3133 2.78903 20.2471 2.74225C19.9387 2.52413 19.618 2.32387 19.2866 2.14246C19.1961 2.09166 19.1292 2.00723 19.1005 1.90748C19.0718 1.80772 19.0836 1.70067 19.1333 1.60952C19.1829 1.51837 19.2665 1.45046 19.3659 1.42052C19.4653 1.39058 19.5725 1.40101 19.6643 1.44955C20.022 1.64506 20.3681 1.86113 20.7009 2.09669C20.7695 2.14494 20.8209 2.21379 20.8478 2.29326C20.8746 2.37274 20.8754 2.45869 20.8501 2.53865C20.8247 2.61861 20.7746 2.68842 20.7069 2.73794C20.6392 2.78747 20.5575 2.81413 20.4736 2.81407Z" fill="#EAA315"/>
<path d="M6.32809 3.46514C6.24713 3.46522 6.16811 3.4404 6.10174 3.39404C6.03537 3.34768 5.98487 3.28202 5.95708 3.20599C5.92929 3.12995 5.92556 3.0472 5.9464 2.96897C5.96724 2.89074 6.01164 2.82082 6.07357 2.76868C7.91494 1.21295 10.1829 0.249026 12.5809 0.00294239C12.6329 -0.00345087 12.6857 0.00059863 12.7362 0.014854C12.7867 0.0291093 12.8338 0.0532844 12.8749 0.0859659C12.9159 0.118648 12.95 0.15918 12.9751 0.205193C13.0003 0.251205 13.0161 0.301776 13.0215 0.353947C13.0269 0.406118 13.0218 0.458842 13.0066 0.509038C12.9914 0.559234 12.9663 0.605894 12.9329 0.646289C12.8994 0.686684 12.8583 0.720004 12.8118 0.744302C12.7653 0.768599 12.7144 0.783386 12.6622 0.787797C10.4216 1.01821 8.30253 1.91896 6.58181 3.37241C6.51088 3.43239 6.42097 3.46525 6.32809 3.46514Z" fill="#EAA315"/>
<path d="M16.8994 1.14094C16.8638 1.14105 16.8283 1.13627 16.794 1.12674C16.4233 1.02411 16.0474 0.941516 15.6678 0.879324C15.6161 0.871737 15.5663 0.85393 15.5215 0.826939C15.4767 0.799947 15.4377 0.76431 15.4067 0.722101C15.3758 0.679892 15.3536 0.631955 15.3414 0.581079C15.3291 0.530203 15.3272 0.477404 15.3355 0.425754C15.3439 0.374104 15.3625 0.324635 15.3901 0.280226C15.4178 0.235817 15.454 0.197354 15.4967 0.167076C15.5394 0.136798 15.5876 0.11531 15.6387 0.103861C15.6898 0.0924123 15.7426 0.0912319 15.7941 0.100389C16.2019 0.166969 16.6058 0.255621 17.0039 0.365953C17.096 0.391334 17.1756 0.449209 17.2283 0.528854C17.2809 0.608499 17.3028 0.704514 17.2901 0.799109C17.2773 0.893705 17.2307 0.980468 17.1588 1.04332C17.087 1.10617 16.9948 1.14086 16.8994 1.14094Z" fill="#EAA315"/>
<path d="M24.7554 16.3409C24.7093 16.341 24.6636 16.3328 24.6204 16.3168C24.5717 16.2992 24.5269 16.2721 24.4886 16.2372C24.4503 16.2022 24.4193 16.1601 24.3973 16.1131C24.3753 16.0662 24.3628 16.0154 24.3605 15.9636C24.3581 15.9118 24.366 15.8601 24.3837 15.8113C25.0716 13.9206 25.24 11.8799 24.8712 9.90194C24.5024 7.92398 23.6099 6.08111 22.2868 4.5653C22.2513 4.52649 22.2238 4.48096 22.2062 4.43139C22.1885 4.38182 22.1809 4.32922 22.1839 4.27668C22.1868 4.22414 22.2002 4.17272 22.2234 4.12544C22.2465 4.07817 22.2788 4.036 22.3185 4.00142C22.3582 3.96683 22.4043 3.94053 22.4543 3.92406C22.5043 3.90759 22.5571 3.90128 22.6095 3.90551C22.662 3.90974 22.7131 3.92442 22.7598 3.94868C22.8065 3.97295 22.8478 4.00631 22.8814 4.0468C24.2975 5.66891 25.2527 7.64113 25.6473 9.75793C26.0419 11.8747 25.8616 14.0586 25.1251 16.082C25.0974 16.1578 25.047 16.2233 24.9809 16.2695C24.9148 16.3158 24.8361 16.3407 24.7554 16.3409Z" fill="#EAA315"/>
<path d="M24.7558 16.3401C24.6806 16.3402 24.607 16.3188 24.5436 16.2784C24.4802 16.2381 24.4297 16.1805 24.3979 16.1124L23.2413 13.6316C23.2178 13.5844 23.204 13.5331 23.2007 13.4805C23.1974 13.4279 23.2047 13.3752 23.222 13.3255C23.2394 13.2758 23.2666 13.23 23.3019 13.191C23.3372 13.1519 23.38 13.1203 23.4278 13.0981C23.4755 13.0758 23.5272 13.0633 23.5799 13.0614C23.6325 13.0594 23.685 13.068 23.7342 13.0867C23.7835 13.1053 23.8285 13.1336 23.8667 13.1699C23.9048 13.2063 23.9353 13.2499 23.9563 13.2981L24.9464 15.4211L27.0697 14.4314C27.1169 14.408 27.1682 14.3942 27.2208 14.3908C27.2734 14.3875 27.3261 14.3948 27.3758 14.4122C27.4255 14.4295 27.4712 14.4567 27.5103 14.492C27.5494 14.5274 27.581 14.5702 27.6032 14.6179C27.6255 14.6656 27.638 14.7173 27.6399 14.77C27.6419 14.8226 27.6333 14.8751 27.6146 14.9244C27.596 14.9736 27.5677 15.0186 27.5313 15.0568C27.495 15.0949 27.4514 15.1254 27.4031 15.1464L24.9223 16.3054C24.87 16.329 24.8132 16.3408 24.7558 16.3401Z" fill="#EAA315"/>
<path d="M4.04137 10.8662C3.96622 10.8663 3.89262 10.8449 3.82922 10.8046C3.76582 10.7642 3.71525 10.7066 3.68347 10.6385L2.69382 8.5152L0.570487 9.50485C0.523338 9.52833 0.471966 9.54213 0.419399 9.54544C0.366832 9.54875 0.314134 9.5415 0.264412 9.52413C0.21469 9.50675 0.16895 9.47959 0.129889 9.44426C0.0908277 9.40893 0.0592354 9.36613 0.0369745 9.31839C0.0147137 9.27066 0.00223487 9.21895 0.000273655 9.16631C-0.00168756 9.11368 0.00690859 9.06119 0.0255553 9.01193C0.044202 8.96267 0.0725218 8.91764 0.108845 8.87949C0.145169 8.84135 0.188761 8.81087 0.237052 8.78984L2.71789 7.63327C2.76486 7.61137 2.81569 7.59894 2.86747 7.59669C2.91924 7.59443 2.97096 7.6024 3.01966 7.62014C3.06836 7.63787 3.11309 7.66503 3.15129 7.70005C3.18949 7.73507 3.22042 7.77728 3.24231 7.82426L4.39887 10.3051C4.42685 10.3652 4.43924 10.4314 4.43488 10.4976C4.43051 10.5637 4.40955 10.6277 4.37392 10.6836C4.33829 10.7396 4.28915 10.7856 4.23102 10.8175C4.1729 10.8494 4.10767 10.8662 4.04137 10.8662Z" fill="#EAA315"/>
</svg>
