<svg width="35" height="30" viewBox="0 0 35 30" fill="none" xmlns="http://www.w3.org/2000/svg">
<path d="M17.2714 23.1902C15.5454 23.1896 13.8583 22.6773 12.4235 21.7179C10.9886 20.7586 9.87048 19.3953 9.21037 17.8005C8.55026 16.2057 8.37785 14.451 8.71494 12.7582C9.05202 11.0655 9.88347 9.51065 11.1042 8.29039C12.3248 7.07012 13.8799 6.2392 15.5728 5.90268C17.2657 5.56617 19.0204 5.73918 20.615 6.39983C22.2095 7.06048 23.5724 8.17911 24.5313 9.61428C25.4901 11.0494 26.0019 12.7367 26.0019 14.4627C25.9993 16.7771 25.0785 18.9959 23.4417 20.6322C21.8049 22.2684 19.5858 23.1884 17.2714 23.1902ZM17.2714 6.72219C15.7405 6.72277 14.2441 7.17729 12.9715 8.02826C11.6989 8.87923 10.7072 10.0884 10.1217 11.503C9.5363 12.9176 9.38345 14.474 9.68251 15.9754C9.98157 17.4768 10.7191 18.8559 11.8019 19.9382C12.8847 21.0204 14.264 21.7574 15.7656 22.0558C17.2671 22.3542 18.8235 22.2006 20.2378 21.6146C21.6521 21.0285 22.8609 20.0362 23.7113 18.7632C24.5617 17.4902 25.0155 15.9936 25.0154 14.4627C25.0131 12.4099 24.1963 10.4419 22.7444 8.99071C21.2926 7.53949 19.3242 6.72363 17.2714 6.72219Z" fill="#808285"/>
<path d="M23.8405 19.2053C23.0273 18.2592 22.0193 17.5 20.8855 16.9795C19.7518 16.459 18.519 16.1895 17.2714 16.1895C16.0239 16.1895 14.7911 16.459 13.6573 16.9795C12.5235 17.5 11.5156 18.2592 10.7024 19.2053L9.95361 18.5641C10.8595 17.5102 11.9824 16.6644 13.2454 16.0846C14.5084 15.5048 15.8817 15.2047 17.2714 15.2047C18.6611 15.2047 20.0345 15.5048 21.2975 16.0846C22.5605 16.6644 23.6833 17.5102 24.5892 18.5641L23.8405 19.2053Z" fill="#808285"/>
<path d="M17.2716 16.1891C16.6532 16.1892 16.0486 16.0059 15.5343 15.6624C15.0201 15.3189 14.6192 14.8305 14.3825 14.2592C14.1458 13.6878 14.0838 13.0591 14.2045 12.4526C14.3251 11.846 14.6229 11.2888 15.0602 10.8515C15.4975 10.4142 16.0547 10.1164 16.6612 9.99579C17.2678 9.87516 17.8965 9.93712 18.4679 10.1738C19.0392 10.4105 19.5275 10.8114 19.8711 11.3256C20.2146 11.8399 20.3979 12.4445 20.3978 13.0629C20.3969 13.8918 20.0672 14.6864 19.4811 15.2725C18.8951 15.8585 18.1004 16.1882 17.2716 16.1891ZM17.2716 10.9227C16.8483 10.9226 16.4344 11.0481 16.0824 11.2832C15.7304 11.5183 15.456 11.8525 15.294 12.2436C15.1319 12.6346 15.0894 13.065 15.172 13.4801C15.2545 13.8953 15.4583 14.2767 15.7576 14.5761C16.0569 14.8755 16.4382 15.0793 16.8534 15.162C17.2686 15.2446 17.6989 15.2022 18.09 15.0403C18.4811 14.8783 18.8154 14.604 19.0506 14.252C19.2858 13.9 19.4113 13.4862 19.4113 13.0629C19.4105 12.4957 19.1848 11.9519 18.7837 11.5508C18.3826 11.1497 17.8388 10.924 17.2716 10.9232V10.9227Z" fill="#808285"/>
<path d="M17.3136 30C14.8949 29.9998 12.5118 29.417 10.3659 28.301C8.22011 27.1849 6.37467 25.5684 4.98576 23.5882C3.59685 21.6081 2.70534 19.3225 2.38666 16.9248C2.06798 14.5272 2.3315 12.0881 3.15493 9.81385C3.20027 9.69167 3.29213 9.5924 3.41043 9.53772C3.52873 9.48305 3.66386 9.47742 3.7863 9.52205C3.90874 9.56669 4.00854 9.65797 4.06389 9.77595C4.11925 9.89393 4.12567 10.029 4.08174 10.1517C2.96653 13.2174 2.95284 16.5756 4.04302 19.6502C5.1332 22.7249 7.2593 25.3243 10.0566 27.0027C12.8539 28.6811 16.1481 29.3338 19.374 28.8489C22.6 28.3639 25.5567 26.7716 27.7369 24.3449C27.7789 24.2925 27.8312 24.2493 27.8905 24.2178C27.9499 24.1864 28.015 24.1674 28.0819 24.162C28.1489 24.1566 28.2162 24.1649 28.2798 24.1865C28.3434 24.208 28.402 24.2423 28.4518 24.2873C28.5017 24.3323 28.5419 24.3869 28.5699 24.448C28.5979 24.509 28.6131 24.5751 28.6147 24.6423C28.6162 24.7094 28.604 24.7762 28.5789 24.8384C28.5537 24.9007 28.5161 24.9572 28.4684 25.0044C27.0649 26.5747 25.346 27.8312 23.4239 28.6921C21.5017 29.5529 19.4197 29.9985 17.3136 30Z" fill="#808285"/>
<path d="M25.5921 3.51757C25.4907 3.51764 25.3918 3.48627 25.309 3.4278C24.9235 3.15515 24.5226 2.90482 24.1084 2.67806C23.9953 2.61456 23.9117 2.50903 23.8758 2.38433C23.8399 2.25963 23.8546 2.12582 23.9167 2.01188C23.9788 1.89794 24.0833 1.81306 24.2075 1.77564C24.3318 1.73821 24.4658 1.75124 24.5805 1.81192C25.0276 2.0563 25.4603 2.3264 25.8762 2.62084C25.962 2.68115 26.0263 2.76723 26.0598 2.86657C26.0934 2.96591 26.0944 3.07335 26.0627 3.1733C26.031 3.27325 25.9683 3.36051 25.8837 3.42241C25.7991 3.48432 25.697 3.51765 25.5921 3.51757Z" fill="#808285"/>
<path d="M7.90998 4.33143C7.80879 4.33152 7.71001 4.30049 7.62705 4.24254C7.54409 4.18459 7.48096 4.10253 7.44623 4.00748C7.41149 3.91243 7.40683 3.809 7.43288 3.71121C7.45893 3.61343 7.51443 3.52602 7.59184 3.46085C9.89355 1.51618 12.7285 0.311282 15.726 0.00367798C15.7911 -0.00431359 15.8571 0.000748288 15.9202 0.0185675C15.9833 0.0363866 16.0422 0.0666054 16.0934 0.107457C16.1447 0.148309 16.1873 0.198975 16.2188 0.256491C16.2503 0.314007 16.27 0.37722 16.2767 0.442433C16.2835 0.507647 16.2772 0.573553 16.2581 0.636298C16.2391 0.699042 16.2078 0.757367 16.166 0.807861C16.1242 0.858355 16.0727 0.900005 16.0146 0.930377C15.9565 0.960748 15.8929 0.979232 15.8276 0.984746C13.0268 1.27276 10.378 2.3987 8.22714 4.21551C8.13848 4.29049 8.02609 4.33156 7.90998 4.33143Z" fill="#808285"/>
<path d="M21.1239 1.42622C21.0794 1.42636 21.0351 1.42038 20.9922 1.40847C20.5288 1.28018 20.0589 1.17694 19.5844 1.0992C19.5197 1.08972 19.4576 1.06746 19.4015 1.03372C19.3455 0.999979 19.2967 0.955433 19.2581 0.902672C19.2194 0.849911 19.1916 0.78999 19.1764 0.726394C19.1611 0.662799 19.1586 0.5968 19.1691 0.532238C19.1795 0.467676 19.2027 0.40584 19.2373 0.350329C19.2719 0.294817 19.3172 0.246739 19.3705 0.208891C19.4239 0.171044 19.4842 0.144183 19.548 0.129872C19.6119 0.115561 19.6779 0.114086 19.7423 0.125532C20.252 0.208757 20.7569 0.319572 21.2546 0.457487C21.3696 0.489213 21.4692 0.561557 21.535 0.661113C21.6008 0.760669 21.6282 0.880688 21.6122 0.998933C21.5963 1.11718 21.538 1.22563 21.4482 1.3042C21.3584 1.38276 21.2432 1.42612 21.1239 1.42622Z" fill="#808285"/>
<path d="M30.9442 20.4261C30.8866 20.4262 30.8295 20.416 30.7755 20.396C30.7146 20.3739 30.6586 20.3401 30.6107 20.2964C30.5629 20.2527 30.5241 20.2 30.4966 20.1414C30.4692 20.0827 30.4535 20.0192 30.4506 19.9544C30.4476 19.8897 30.4575 19.825 30.4796 19.7641C31.3395 17.4006 31.5499 14.8498 31.0889 12.3774C30.6279 9.90493 29.5124 7.60134 27.8585 5.70658C27.814 5.65806 27.7798 5.60115 27.7577 5.53919C27.7356 5.47723 27.7261 5.41148 27.7298 5.3458C27.7335 5.28012 27.7503 5.21585 27.7792 5.15676C27.8081 5.09767 27.8485 5.04496 27.8981 5.00172C27.9477 4.95849 28.0054 4.92562 28.0679 4.90503C28.1304 4.88444 28.1963 4.87656 28.2619 4.88184C28.3275 4.88713 28.3913 4.90548 28.4497 4.93581C28.508 4.96614 28.5598 5.00784 28.6018 5.05845C30.3719 7.08609 31.5658 9.55137 32.0591 12.1974C32.5524 14.8434 32.327 17.5732 31.4064 20.1025C31.3717 20.1972 31.3088 20.279 31.2261 20.3369C31.1435 20.3947 31.0451 20.4259 30.9442 20.4261Z" fill="#808285"/>
<path d="M30.9448 20.4251C30.8509 20.4252 30.7589 20.3984 30.6796 20.348C30.6004 20.2976 30.5372 20.2256 30.4974 20.1405L29.0517 17.0394C29.0224 16.9805 29.0051 16.9163 29.001 16.8506C28.9968 16.7849 29.0059 16.719 29.0276 16.6568C29.0493 16.5947 29.0833 16.5375 29.1275 16.4887C29.1716 16.4399 29.2251 16.4004 29.2848 16.3725C29.3445 16.3447 29.4091 16.3291 29.4749 16.3267C29.5407 16.3242 29.6063 16.335 29.6679 16.3583C29.7294 16.3816 29.7857 16.417 29.8334 16.4624C29.8811 16.5078 29.9192 16.5623 29.9455 16.6226L31.183 19.2763L33.8372 18.0392C33.8961 18.0099 33.9603 17.9926 34.0261 17.9885C34.0918 17.9844 34.1576 17.9934 34.2198 18.0152C34.2819 18.0369 34.3391 18.0708 34.3879 18.115C34.4368 18.1592 34.4763 18.2126 34.5041 18.2723C34.5319 18.332 34.5475 18.3966 34.55 18.4624C34.5524 18.5282 34.5417 18.5938 34.5184 18.6554C34.4951 18.717 34.4597 18.7733 34.4142 18.8209C34.3688 18.8686 34.3144 18.9067 34.254 18.933L31.1529 20.3817C31.0876 20.4112 31.0165 20.426 30.9448 20.4251Z" fill="#808285"/>
<path d="M5.05171 13.5828C4.95778 13.5828 4.86578 13.5561 4.78653 13.5057C4.70727 13.4553 4.64407 13.3833 4.60433 13.2982L3.36727 10.644L0.713109 11.8811C0.654172 11.9104 0.589957 11.9277 0.524248 11.9318C0.45854 11.9359 0.392668 11.9269 0.330515 11.9052C0.268363 11.8834 0.211188 11.8495 0.162361 11.8053C0.113535 11.7612 0.0740442 11.7077 0.0462182 11.648C0.0183921 11.5883 0.00279359 11.5237 0.000342069 11.4579C-0.00210945 11.3921 0.00863574 11.3265 0.0319441 11.2649C0.0552525 11.2033 0.0906522 11.147 0.136057 11.0994C0.181461 11.0517 0.235951 11.0136 0.296315 10.9873L3.39736 9.54159C3.45608 9.51422 3.51961 9.49868 3.58433 9.49586C3.64906 9.49304 3.7137 9.503 3.77457 9.52517C3.83545 9.54734 3.89136 9.58128 3.93911 9.62506C3.98686 9.66884 4.02552 9.7216 4.05288 9.78032L5.49859 12.8814C5.53357 12.9565 5.54905 13.0393 5.54359 13.122C5.53814 13.2047 5.51194 13.2847 5.4674 13.3546C5.42287 13.4245 5.36144 13.482 5.28878 13.5219C5.21613 13.5618 5.13459 13.5827 5.05171 13.5828Z" fill="#808285"/>
</svg>
