<svg width="25" height="16" viewBox="0 0 25 16" fill="none" xmlns="http://www.w3.org/2000/svg">
<path d="M3.74356 14.3579C3.76396 14.0253 3.78544 13.6913 3.82764 13.3565C3.90802 12.5581 4.08096 11.7597 4.25683 10.9791C4.36679 10.5902 4.48383 10.2074 4.60418 9.83184C4.76118 9.46665 4.91449 9.10304 5.06633 8.74754C5.41298 8.05284 5.79883 7.40443 6.25989 6.86113C6.37062 6.72153 6.47835 6.58524 6.58467 6.44934C6.70655 6.32861 6.82722 6.21049 6.94649 6.09313C7.19274 5.86945 7.40679 5.62951 7.65451 5.44988C8.14445 5.08583 8.58066 4.73995 9.02356 4.5252C9.45052 4.28781 9.8175 4.08013 10.1474 3.96347C10.7929 3.70314 11.1599 3.57202 11.1599 3.57202C11.1599 3.57202 10.8466 3.82018 10.2992 4.22266C10.0156 4.40861 9.71825 4.69998 9.36083 4.99697C8.99092 5.28134 8.65282 5.68797 8.25435 6.08013C8.05362 6.27863 7.89814 6.53042 7.70926 6.76118C7.61671 6.87783 7.52262 6.9978 7.42706 7.11815C7.34668 7.25036 7.2656 7.38365 7.18228 7.51885C6.82933 8.04207 6.56568 8.65721 6.29017 9.2823C6.17875 9.60739 6.06286 9.93779 5.94652 10.2725C5.86691 10.6214 5.77836 10.9724 5.68134 11.3228C5.5369 12.0412 5.39436 12.7737 5.3347 13.5291C5.29135 13.8024 5.26955 14.0794 5.24654 14.3565C11.2386 14.3579 15.8776 14.3609 22.3678 14.3609C22.3892 14.0764 22.4018 13.7891 22.4018 13.498C22.4018 8.03213 18.4172 3.53135 13.2942 2.93514C13.6238 2.62476 13.832 2.18563 13.832 1.69638C13.8305 0.759841 13.0721 0 12.1344 0C11.1964 0 10.4354 0.759841 10.4354 1.69829C10.4354 2.18709 10.6436 2.62629 10.975 2.93661C5.85014 3.53281 1.8678 8.03366 1.8678 13.4995C1.8678 13.7891 1.87851 14.075 1.89967 14.358C2.53298 14.3579 3.14436 14.3579 3.74356 14.3579Z" fill="white"/>
<path d="M24.2869 14.9801H0V16H24.2869V14.9801Z" fill="white"/>
</svg>
