<svg width="29" height="25" viewBox="0 0 29 25" fill="none" xmlns="http://www.w3.org/2000/svg">
<path d="M9.03278 22.3305C8.88029 22.0245 8.72802 21.7167 8.59376 21.3976C8.25558 20.6469 7.99965 19.8487 7.75545 19.0648C7.65364 18.6628 7.56125 18.2626 7.47554 17.8672C7.4277 17.4621 7.37739 17.0604 7.32993 16.6666C7.28156 15.8715 7.29176 15.0973 7.42274 14.378C7.44951 14.1972 7.47531 14.0208 7.50007 13.8455C7.54643 13.6757 7.59306 13.5088 7.63884 13.3433C7.74289 13.0182 7.81001 12.6952 7.93797 12.4085C8.18656 11.8337 8.39672 11.3025 8.6801 10.8845C8.93772 10.4545 9.15726 10.0817 9.3906 9.80876C9.83056 9.24631 10.0894 8.94149 10.0894 8.94149C10.0894 8.94149 9.93835 9.32274 9.65844 9.9612C9.50183 10.2719 9.38707 10.6834 9.22184 11.1307C9.03903 11.5731 8.9472 12.1079 8.79431 12.6608C8.71778 12.9402 8.70881 13.2437 8.65936 13.5456C8.63696 13.6968 8.6149 13.8516 8.59173 14.0076C8.58813 14.1663 8.58446 14.3264 8.57979 14.4893C8.53459 15.1353 8.61589 15.8171 8.69177 16.5139C8.75954 16.86 8.82606 17.213 8.89441 17.5701C9.00265 17.921 9.10407 18.2783 9.19759 18.6394C9.43783 19.3519 9.68694 20.0759 10.0215 20.7778C10.1232 21.0429 10.2459 21.3002 10.3676 21.5582C15.6928 18.4854 19.8165 16.108 25.5836 12.7784C25.4568 12.5147 25.3205 12.2529 25.1712 11.9942C22.367 7.1373 16.5173 5.18218 11.6592 7.2806C11.7928 6.83573 11.7526 6.33871 11.5016 5.90397C11.0198 5.07252 9.95602 4.78643 9.1228 5.26749C8.28929 5.74872 8.00296 6.81428 8.48442 7.64819C8.73518 8.08253 9.14545 8.36602 9.59913 8.47174C5.35111 11.6307 4.1215 17.6732 6.92565 22.5301C7.07422 22.7875 7.23038 23.0359 7.39438 23.2766C7.95707 22.9516 8.50033 22.6379 9.03278 22.3305Z" fill="white"/>
<path d="M28.9254 23.9166H4.00696V25H28.9254V23.9166Z" fill="white"/>
</svg>
