<svg width="25" height="24" viewBox="0 0 25 24" fill="none" xmlns="http://www.w3.org/2000/svg">
<path d="M7.86647 18.8511C6.44459 18.8511 5.29199 20.0037 5.29199 21.4256C5.29199 22.8474 6.44465 24 7.86647 24C9.28834 24 10.4409 22.8474 10.4409 21.4256C10.441 20.0037 9.28834 18.8511 7.86647 18.8511ZM7.86647 22.8559C7.07655 22.8559 6.43622 22.2155 6.43622 21.4256C6.43622 20.6357 7.07655 19.9954 7.86647 19.9954C8.65639 19.9954 9.29672 20.6357 9.29672 21.4256C9.29677 22.2155 8.65639 22.8559 7.86647 22.8559Z" fill="#EAA315"/>
<path d="M18.7366 18.8511C17.3147 18.8511 16.1621 20.0037 16.1621 21.4256C16.1621 22.8474 17.3148 24 18.7366 24C20.1584 24 21.3111 22.8474 21.3111 21.4256C21.3111 20.0037 20.1585 18.8511 18.7366 18.8511ZM18.7366 22.8559C17.9467 22.8559 17.3063 22.2155 17.3063 21.4256C17.3063 20.6357 17.9467 19.9954 18.7366 19.9954C19.5265 19.9954 20.1668 20.6357 20.1668 21.4256C20.1669 22.2155 19.5265 22.8559 18.7366 22.8559Z" fill="#EAA315"/>
<path d="M24.5435 3.83319C24.4244 3.70304 24.2614 3.62157 24.0859 3.60432L5.46367 3.34687L4.94877 1.77355C4.58604 0.721806 3.60114 0.0117718 2.48868 0H0.572112C0.256133 0 0 0.256133 0 0.572112C0 0.88809 0.256133 1.14422 0.572112 1.14422H2.48868C3.11072 1.15797 3.65847 1.55739 3.86177 2.14543L7.49467 13.1014L7.20864 13.7593C6.8896 14.582 6.98541 15.508 7.46609 16.2479C7.94216 16.9747 8.74309 17.4233 9.61152 17.4494H20.7391C21.0551 17.4494 21.3112 17.1932 21.3112 16.8773C21.3112 16.5613 21.0551 16.3052 20.7391 16.3052H9.61147C9.12105 16.2929 8.66961 16.0349 8.41003 15.6186C8.15335 15.2074 8.10062 14.7008 8.26701 14.2455L8.49588 13.7306L20.5388 12.472C21.8616 12.3263 22.9498 11.3642 23.2563 10.0691L24.6294 4.31939C24.6913 4.15382 24.6585 3.96761 24.5435 3.83319ZM22.1407 9.8117C21.955 10.6454 21.2472 11.2603 20.3958 11.3278L8.49588 12.5578L5.83555 4.4911L23.3707 4.74854L22.1407 9.8117Z" fill="#EAA315"/>
</svg>
