<svg width="31" height="30" viewBox="0 0 31 30" fill="none" xmlns="http://www.w3.org/2000/svg">
<path d="M9.83321 23.5638C8.05586 23.5638 6.61511 25.0046 6.61511 26.7819C6.61511 28.5593 8.05593 30 9.83321 30C11.6106 30 13.0513 28.5592 13.0513 26.7819C13.0514 25.0046 11.6106 23.5638 9.83321 23.5638ZM9.83321 28.5698C8.84581 28.5698 8.04539 27.7694 8.04539 26.782C8.04539 25.7946 8.84581 24.9942 9.83321 24.9942C10.8206 24.9942 11.621 25.7946 11.621 26.782C11.6211 27.7694 10.8206 28.5698 9.83321 28.5698Z" fill="#808285"/>
<path d="M23.4206 23.5638C21.6433 23.5638 20.2025 25.0046 20.2025 26.7819C20.2025 28.5593 21.6433 30 23.4206 30C25.1979 30 26.6387 28.5592 26.6387 26.7819C26.6387 25.0046 25.198 23.5638 23.4206 23.5638ZM23.4206 28.5698C22.4332 28.5698 21.6328 27.7694 21.6328 26.782C21.6328 25.7946 22.4332 24.9942 23.4206 24.9942C24.408 24.9942 25.2084 25.7946 25.2084 26.782C25.2085 27.7694 24.408 28.5698 23.4206 28.5698Z" fill="#808285"/>
<path d="M30.6794 4.79148C30.5305 4.6288 30.3267 4.52696 30.1073 4.5054L6.82959 4.18359L6.18597 2.21694C5.73255 0.902257 4.50143 0.0147148 3.11085 0H0.71514C0.320167 0 0 0.320167 0 0.71514C0 1.11011 0.320167 1.43028 0.71514 1.43028H3.11085C3.88841 1.44746 4.57309 1.94674 4.82721 2.68179L9.36834 16.3767L9.0108 17.1991C8.612 18.2275 8.73177 19.3849 9.33261 20.3099C9.9277 21.2184 10.9289 21.7791 12.0144 21.8117H25.9239C26.3188 21.8117 26.639 21.4916 26.639 21.0966C26.639 20.7016 26.3188 20.3814 25.9239 20.3814H12.0143C11.4013 20.3661 10.837 20.0436 10.5125 19.5233C10.1917 19.0093 10.1258 18.3761 10.3338 17.8069L10.6198 17.1633L25.6735 15.59C27.327 15.4078 28.6872 14.2052 29.0704 12.5864L30.7868 5.39924C30.8641 5.19227 30.8231 4.95951 30.6794 4.79148ZM27.6759 12.2646C27.4437 13.3067 26.559 14.0754 25.4947 14.1598L10.6198 15.6973L7.29444 5.61387L29.2134 5.93568L27.6759 12.2646Z" fill="#808285"/>
</svg>
