<svg width="43" height="30" viewBox="0 0 43 30" fill="none" xmlns="http://www.w3.org/2000/svg">
<path d="M22.1152 15.885C21.5479 15.885 21.0647 16.2977 21.0647 16.7826V29.1017C21.0647 29.6045 21.5479 30 22.1152 30C22.7034 30 23.1656 29.6045 23.1656 29.1017V16.7826C23.1656 16.2977 22.7034 15.885 22.1152 15.885Z" fill="#EAA315"/>
<path d="M30.4771 15.885C29.9098 15.885 29.4266 16.2977 29.4266 16.7826V29.1017C29.4266 29.6045 29.9098 30 30.4771 30C31.0653 30 31.5272 29.6045 31.5272 29.1017V16.7826C31.5272 16.2977 31.0653 15.885 30.4771 15.885Z" fill="#EAA315"/>
<path d="M38.8382 15.885C38.2709 15.885 37.7877 16.2977 37.7877 16.7826V29.1017C37.7877 29.6045 38.2709 30 38.8382 30C39.4264 30 39.8887 29.6045 39.8887 29.1017V16.7826C39.8887 16.2977 39.4264 15.885 38.8382 15.885Z" fill="#EAA315"/>
<path d="M42.1537 8.06909C40.512 5.79767 37.8989 4.39029 35.0543 4.39029C34.2354 4.39029 33.4276 4.50826 32.6536 4.74089L31.972 4.94593L31.5154 4.38132C29.2632 1.59713 25.957 -1.14441e-05 22.444 -1.14441e-05C17.5931 -1.14441e-05 13.3194 3.09822 11.4947 7.58589C11.4026 7.81287 11.3212 8.04516 11.2414 8.27878C10.7167 8.19105 10.1797 8.14419 9.63234 8.14419C8.34958 8.14419 7.09041 8.40108 5.9007 8.89059C4.75785 9.38043 3.70805 10.0567 2.82208 10.9433C1.93577 11.8064 1.23624 12.8323 0.746395 13.9518C0.256553 15.118 0 16.3542 0 17.6373C0 18.8968 0.232958 20.1327 0.746395 21.2988C1.23624 22.4417 1.91251 23.4679 2.79881 24.3309C3.68511 25.2172 4.71132 25.8935 5.83091 26.3833C6.95848 26.8702 8.14952 27.1227 9.38343 27.1483C9.40005 27.1493 9.41567 27.1533 9.43262 27.1533H15.5427C16.1043 27.1533 16.5642 26.6934 16.5642 26.1318V25.8652C16.5642 25.3036 16.1043 24.8437 15.5427 24.8437H9.72173C9.6782 24.8304 9.63367 24.8208 9.58615 24.8208C7.65004 24.8208 5.83091 24.0511 4.45477 22.6753C3.7785 22.0219 3.26506 21.252 2.89186 20.3896C2.519 19.5029 2.33256 18.593 2.33256 17.6373C2.33256 16.6809 2.519 15.748 2.89186 14.885C3.26506 14.022 3.80176 13.2523 4.45477 12.5993C5.13104 11.9227 5.92397 11.4096 6.787 11.0364C7.69657 10.6632 8.65299 10.4768 9.63234 10.4768C11.2185 10.4768 12.688 10.9666 13.9243 11.9227C14.4138 12.2959 15.1602 12.2025 15.557 11.6897C15.9302 11.1766 15.8368 10.4532 15.3237 10.0567C14.6873 9.56586 13.9997 9.17007 13.2752 8.866C14.6477 4.9878 18.2315 2.21092 22.4337 2.21092C25.7918 2.21092 28.8758 3.97456 30.6836 6.92856C30.9784 7.41574 31.5662 7.58822 32.0524 7.33532C33.0048 6.84714 34.0128 6.60089 35.0543 6.60089C37.0342 6.60089 38.8162 7.48454 40.057 8.94841C40.8692 9.90616 42.706 9.69182 42.1537 8.06909Z" fill="#EAA315"/>
</svg>
