<svg width="34" height="24" viewBox="0 0 34 24" fill="none" xmlns="http://www.w3.org/2000/svg">
<path d="M17.6923 12.708C17.2385 12.708 16.8519 13.0382 16.8519 13.4261V23.2814C16.8519 23.6836 17.2385 24 17.6923 24C18.1629 24 18.5327 23.6836 18.5327 23.2814V13.4261C18.5327 13.0382 18.1629 12.708 17.6923 12.708Z" fill="#808285"/>
<path d="M24.3816 12.708C23.9278 12.708 23.5412 13.0382 23.5412 13.4261V23.2814C23.5412 23.6836 23.9278 24 24.3816 24C24.8521 24 25.2217 23.6836 25.2217 23.2814V13.4261C25.2217 13.0382 24.8521 12.708 24.3816 12.708Z" fill="#808285"/>
<path d="M31.0706 12.708C30.6168 12.708 30.2302 13.0382 30.2302 13.4261V23.2814C30.2302 23.6836 30.6168 24 31.0706 24C31.5412 24 31.911 23.6836 31.911 23.2814V13.4261C31.911 13.0382 31.5412 12.708 31.0706 12.708Z" fill="#808285"/>
<path d="M33.7229 6.45527C32.4096 4.63814 30.3192 3.51223 28.0434 3.51223C27.3883 3.51223 26.7421 3.60661 26.1229 3.79271L25.5776 3.95675L25.2123 3.50505C23.4106 1.2777 20.7656 -9.53674e-06 17.9552 -9.53674e-06C14.0745 -9.53674e-06 10.6556 2.47858 9.19574 6.06872C9.12209 6.2503 9.05696 6.43613 8.99315 6.62303C8.57337 6.55284 8.14374 6.51536 7.70587 6.51536C6.67966 6.51536 5.67233 6.72086 4.72056 7.11247C3.80628 7.50434 2.96644 8.04536 2.25766 8.75467C1.54862 9.4451 0.98899 10.2658 0.597116 11.1615C0.205242 12.0944 0 13.0834 0 14.1098C0 15.1174 0.186367 16.1062 0.597116 17.039C0.98899 17.9533 1.53001 18.7743 2.23905 19.4647C2.94809 20.1738 3.76906 20.7148 4.66473 21.1067C5.56678 21.4961 6.51962 21.6982 7.50675 21.7187C7.52004 21.7195 7.53253 21.7227 7.54609 21.7227H12.4341C12.8834 21.7227 13.2514 21.3547 13.2514 20.9054V20.6922C13.2514 20.2429 12.8834 19.8749 12.4341 19.8749H7.77739C7.74256 19.8643 7.70694 19.8566 7.66892 19.8566C6.12003 19.8566 4.66473 19.2409 3.56382 18.1402C3.0228 17.6176 2.61205 17.0016 2.31349 16.3117C2.0152 15.6024 1.86605 14.8744 1.86605 14.1098C1.86605 13.3447 2.0152 12.5984 2.31349 11.908C2.61205 11.2176 3.04141 10.6018 3.56382 10.0794C4.10484 9.53815 4.73917 9.12767 5.4296 8.82911C6.15726 8.53055 6.92239 8.38141 7.70587 8.38141C8.97481 8.38141 10.1504 8.77328 11.1394 9.53815C11.531 9.83671 12.1281 9.762 12.4456 9.35179C12.7441 8.9413 12.6694 8.36253 12.2589 8.04536C11.7498 7.65269 11.1998 7.33606 10.6202 7.0928C11.7182 3.99024 14.5852 1.76874 17.947 1.76874C20.6334 1.76874 23.1006 3.17964 24.5469 5.54285C24.7827 5.9326 25.253 6.07057 25.6419 5.86826C26.4039 5.47771 27.2102 5.28071 28.0434 5.28071C29.6274 5.28071 31.0529 5.98763 32.0456 7.15873C32.6954 7.92493 34.1648 7.75345 33.7229 6.45527Z" fill="#808285"/>
</svg>
