<svg width="50" height="36" viewBox="0 0 50 36" fill="none" xmlns="http://www.w3.org/2000/svg">
<path d="M26.1686 18.7963C25.4974 18.7963 24.9256 19.2847 24.9256 19.8585V34.4355C24.9256 35.0304 25.4974 35.4984 26.1686 35.4984C26.8646 35.4984 27.4116 35.0304 27.4116 34.4355V19.8585C27.4116 19.2847 26.8646 18.7963 26.1686 18.7963Z" fill="#EAA315"/>
<path d="M36.0627 18.7963C35.3915 18.7963 34.8197 19.2847 34.8197 19.8585V34.4355C34.8197 35.0304 35.3915 35.4984 36.0627 35.4984C36.7588 35.4984 37.3053 35.0304 37.3053 34.4355V19.8585C37.3053 19.2847 36.7588 18.7963 36.0627 18.7963Z" fill="#EAA315"/>
<path d="M45.9564 18.7963C45.2852 18.7963 44.7134 19.2847 44.7134 19.8585V34.4355C44.7134 35.0304 45.2852 35.4984 45.9564 35.4984C46.6524 35.4984 47.1994 35.0304 47.1994 34.4355V19.8585C47.1994 19.2847 46.6524 18.7963 45.9564 18.7963Z" fill="#EAA315"/>
<path d="M49.8795 9.54797C47.937 6.86025 44.845 5.19493 41.479 5.19493C40.51 5.19493 39.5541 5.33452 38.6383 5.60978L37.8318 5.85241L37.2915 5.18431C34.6266 1.88984 30.7143 -1.90735e-05 26.5575 -1.90735e-05C20.8175 -1.90735e-05 15.7606 3.66606 13.6014 8.97622C13.4925 9.24479 13.3961 9.51966 13.3018 9.7961C12.6808 9.69229 12.0454 9.63684 11.3977 9.63684C9.87988 9.63684 8.38993 9.94081 6.98217 10.52C5.62986 11.0997 4.38765 11.8999 3.3393 12.949C2.29056 13.9702 1.46281 15.1841 0.883193 16.5089C0.303574 17.8888 0 19.3516 0 20.8698C0 22.3602 0.275654 23.8226 0.883193 25.2024C1.46281 26.5547 2.26303 27.769 3.31177 28.7902C4.36051 29.839 5.57481 30.6392 6.89959 31.2188C8.23382 31.7949 9.64315 32.0938 11.1032 32.124C11.1229 32.1252 11.1414 32.1299 11.1614 32.1299H18.3913C19.0559 32.1299 19.6001 31.5857 19.6001 30.9211V30.6058C19.6001 29.9412 19.0559 29.397 18.3913 29.397H11.5035C11.452 29.3813 11.3993 29.3699 11.3431 29.3699C9.05213 29.3699 6.89959 28.4591 5.27123 26.8312C4.47101 26.0581 3.86348 25.147 3.42188 24.1265C2.98068 23.0774 2.76007 22.0007 2.76007 20.8698C2.76007 19.7381 2.98068 18.6343 3.42188 17.6131C3.86348 16.5919 4.49854 15.6812 5.27123 14.9085C6.07145 14.1079 7.0097 13.5007 8.03092 13.0591C9.10718 12.6175 10.2389 12.3969 11.3977 12.3969C13.2746 12.3969 15.0135 12.9765 16.4763 14.1079C17.0555 14.5495 17.9387 14.439 18.4082 13.8322C18.8498 13.2251 18.7393 12.369 18.1322 11.8999C17.3791 11.3191 16.5656 10.8507 15.7083 10.4909C17.3323 5.90195 21.5729 2.61613 26.5453 2.61613C30.5189 2.61613 34.1681 4.703 36.3072 8.19841C36.656 8.77489 37.3516 8.97897 37.9269 8.67972C39.0539 8.10207 40.2466 7.81069 41.479 7.81069C43.8218 7.81069 45.9303 8.85628 47.3986 10.5885C48.3597 11.7217 50.5331 11.4681 49.8795 9.54797Z" fill="#EAA315"/>
</svg>
