<svg width="44" height="30" viewBox="0 0 44 30" fill="none" xmlns="http://www.w3.org/2000/svg">
<path d="M9.1321 20.0387C8.91947 20.3472 8.99716 20.7698 9.30572 20.9824C9.61427 21.195 10.0368 21.1173 10.2495 20.8088C10.2539 20.8023 10.2583 20.7957 10.2625 20.7891C12.621 17.2192 16.6142 15.0719 20.8929 15.0726C21.2676 15.0726 21.5714 14.7688 21.5714 14.3941C21.5714 14.0194 21.2676 13.7155 20.8929 13.7155C16.1594 13.7144 11.7416 16.0896 9.1321 20.0387Z" fill="#808285"/>
<path d="M42.7466 28.643H38.6755V27.8233C38.6913 23.4275 36.8987 19.2186 33.7183 16.184C33.4548 15.9175 33.0252 15.9152 32.7587 16.1786C32.4922 16.4421 32.4898 16.8717 32.7533 17.1382C32.7612 17.1462 32.7694 17.1541 32.7778 17.1618C35.6907 19.9416 37.3327 23.7968 37.3184 27.8233V28.643H6.10666V27.8233C6.11565 19.6608 12.7304 13.046 20.8929 13.0371H22.5322C23.7927 13.0362 25.048 13.1958 26.2682 13.512C26.6272 13.6195 27.0053 13.4156 27.1127 13.0566C27.2202 12.6975 27.0163 12.3194 26.6573 12.212C26.6408 12.2071 26.6241 12.2027 26.6073 12.1991C25.6702 11.9574 24.7132 11.8005 23.7481 11.7302V9.64446C23.7481 9.26975 23.4442 8.96594 23.0695 8.96594H20.3555C19.9807 8.96594 19.6769 9.26975 19.6769 9.64446V11.7302C11.2627 12.3746 4.76065 19.3844 4.74954 27.8233V28.643H0.678518C0.303806 28.643 0 28.9468 0 29.3215C0 29.6962 0.303806 30 0.678518 30H42.7466C43.1214 30 43.4252 29.6962 43.4252 29.3215C43.4252 28.9468 43.1214 28.643 42.7466 28.643ZM21.0341 10.323H22.3911V11.68H21.0341V10.323Z" fill="#808285"/>
<path d="M28.7247 8.4523C29.3564 9.01615 29.8551 9.46126 29.8551 10.3698C29.8551 11.2783 29.3564 11.7234 28.7247 12.2907C27.7644 12.9617 27.1773 14.0469 27.141 15.2178C27.141 15.5925 27.4448 15.8963 27.8195 15.8963C28.1942 15.8963 28.498 15.5925 28.498 15.2178C28.498 14.3093 28.9967 13.8642 29.6284 13.3003C30.5893 12.6282 31.1764 11.5418 31.2121 10.3698C31.1764 9.19791 30.5893 8.11177 29.6284 7.43995C28.9967 6.8761 28.498 6.431 28.498 5.52314C28.498 4.61528 28.9967 4.17085 29.6284 3.607C30.5893 2.93586 31.1765 1.85006 31.2121 0.678518C31.2121 0.303806 30.9083 0 30.5336 0C30.1589 0 29.8551 0.303806 29.8551 0.678518C29.8551 1.5857 29.3564 2.03013 28.7247 2.59397C27.7636 3.26537 27.1764 4.35142 27.141 5.52314C27.1768 6.69477 27.7639 7.78074 28.7247 8.4523Z" fill="#808285"/>
<path d="M32.7956 8.4523C33.4273 9.01615 33.926 9.46126 33.926 10.3698C33.926 11.2783 33.4273 11.7268 32.7956 12.288C31.8345 12.9596 31.2474 14.0458 31.2119 15.2178C31.2119 15.5925 31.5157 15.8963 31.8904 15.8963C32.2651 15.8963 32.569 15.5925 32.569 15.2178C32.569 14.3093 33.0677 13.8642 33.6994 13.3003C34.6602 12.6282 35.2473 11.5418 35.283 10.3698C35.2473 9.19791 34.6602 8.11177 33.6994 7.43995C33.0677 6.8761 32.569 6.431 32.569 5.52314C32.569 4.61528 33.0677 4.17085 33.6994 3.607C34.6602 2.93586 35.2474 1.85006 35.283 0.678518C35.283 0.303806 34.9792 0 34.6045 0C34.2298 0 33.926 0.303806 33.926 0.678518C33.926 1.5857 33.4273 2.03013 32.7956 2.59397C31.8345 3.26537 31.2474 4.35142 31.2119 5.52314C31.2477 6.69477 31.8348 7.78074 32.7956 8.4523Z" fill="#808285"/>
<path d="M36.8665 8.4523C37.4982 9.01615 37.9969 9.46126 37.9969 10.3698C37.9969 11.2783 37.4982 11.7268 36.8665 12.288C35.9055 12.9596 35.3183 14.0458 35.2828 15.2178C35.2828 15.5925 35.5866 15.8963 35.9614 15.8963C36.3361 15.8963 36.6399 15.5925 36.6399 15.2178C36.6399 14.3093 37.1386 13.8642 37.7703 13.3003C38.7312 12.6282 39.3182 11.5418 39.3539 10.3698C39.3182 9.19791 38.7312 8.11177 37.7703 7.43995C37.1386 6.8761 36.6399 6.431 36.6399 5.52314C36.6399 4.61528 37.1386 4.17085 37.7703 3.607C38.7312 2.93586 39.3183 1.85006 39.3539 0.678518C39.3539 0.303806 39.0501 0 38.6754 0C38.3007 0 37.9969 0.303806 37.9969 0.678518C37.9969 1.5857 37.4982 2.03013 36.8665 2.59397C35.9055 3.26537 35.3183 4.35142 35.2828 5.52314C35.3186 6.69477 35.9057 7.78074 36.8665 8.4523Z" fill="#808285"/>
</svg>
