<svg width="35" height="24" viewBox="0 0 35 24" fill="none" xmlns="http://www.w3.org/2000/svg">
<path d="M7.30575 16.0309C7.13565 16.2778 7.1978 16.6158 7.44465 16.7859C7.69149 16.956 8.02953 16.8939 8.19964 16.647C8.20323 16.6419 8.20669 16.6366 8.21008 16.6313C10.0969 13.7754 13.2914 12.0575 16.7144 12.0581C17.0141 12.0581 17.2572 11.815 17.2572 11.5153C17.2572 11.2155 17.0141 10.9724 16.7144 10.9724C12.9276 10.9715 9.39335 12.8717 7.30575 16.0309Z" fill="#EAA315"/>
<path d="M34.1973 22.9144H30.9404V22.2587C30.9531 18.742 29.5189 15.3749 26.9746 12.9472C26.7638 12.734 26.4201 12.7321 26.207 12.9429C25.9938 13.1537 25.9919 13.4974 26.2026 13.7106C26.209 13.717 26.2155 13.7233 26.2222 13.7294C28.5526 15.9533 29.8661 19.0375 29.8547 22.2587V22.9144H4.88533V22.2587C4.89252 15.7287 10.1844 10.4368 16.7143 10.4296H18.0258C19.0341 10.429 20.0384 10.5567 21.0145 10.8096C21.3017 10.8956 21.6042 10.7325 21.6902 10.4453C21.7762 10.158 21.613 9.85555 21.3258 9.76959C21.3127 9.76565 21.2993 9.76219 21.2859 9.75927C20.5362 9.56589 19.7706 9.44037 18.9984 9.38419V7.71557C18.9984 7.41581 18.7554 7.17276 18.4556 7.17276H16.2844C15.9846 7.17276 15.7416 7.41581 15.7416 7.71557V9.38419C9.01018 9.89972 3.80852 15.5075 3.79963 22.2587V22.9144H0.542815C0.243045 22.9144 0 23.1574 0 23.4572C0 23.757 0.243045 24 0.542815 24H34.1973C34.4971 24 34.7401 23.757 34.7401 23.4572C34.7401 23.1574 34.4971 22.9144 34.1973 22.9144ZM16.8273 8.25839H17.9129V9.34402H16.8273V8.25839Z" fill="#EAA315"/>
<path d="M22.9795 6.76184C23.4849 7.21292 23.8838 7.56901 23.8838 8.29583C23.8838 9.02266 23.4849 9.37875 22.9795 9.83254C22.2113 10.3694 21.7416 11.2375 21.7126 12.1742C21.7126 12.474 21.9556 12.7171 22.2554 12.7171C22.5552 12.7171 22.7982 12.474 22.7982 12.1742C22.7982 11.4474 23.1972 11.0913 23.7025 10.6403C24.4712 10.1026 24.9409 9.23348 24.9695 8.29583C24.9409 7.35833 24.4712 6.48942 23.7025 5.95196C23.1972 5.50088 22.7982 5.1448 22.7982 4.41851C22.7982 3.69222 23.1972 3.33668 23.7025 2.8856C24.4712 2.34869 24.941 1.48005 24.9695 0.542814C24.9695 0.243045 24.7264 0 24.4267 0C24.1269 0 23.8838 0.243045 23.8838 0.542814C23.8838 1.26856 23.4849 1.6241 22.9795 2.07518C22.2107 2.61229 21.7409 3.48114 21.7126 4.41851C21.7412 5.35582 22.2109 6.22459 22.9795 6.76184Z" fill="#EAA315"/>
<path d="M26.2364 6.76184C26.7418 7.21292 27.1407 7.56901 27.1407 8.29583C27.1407 9.02266 26.7418 9.38146 26.2364 9.83037C25.4676 10.3677 24.9978 11.2367 24.9695 12.1742C24.9695 12.474 25.2125 12.7171 25.5123 12.7171C25.8121 12.7171 26.0551 12.474 26.0551 12.1742C26.0551 11.4474 26.4541 11.0913 26.9594 10.6403C27.7281 10.1026 28.1978 9.23348 28.2264 8.29583C28.1978 7.35833 27.7281 6.48942 26.9594 5.95196C26.4541 5.50088 26.0551 5.1448 26.0551 4.41851C26.0551 3.69222 26.4541 3.33668 26.9594 2.8856C27.7281 2.34869 28.1979 1.48005 28.2264 0.542814C28.2264 0.243045 27.9833 0 27.6836 0C27.3838 0 27.1407 0.243045 27.1407 0.542814C27.1407 1.26856 26.7418 1.6241 26.2364 2.07518C25.4676 2.61229 24.9978 3.48114 24.9695 4.41851C24.9981 5.35582 25.4678 6.22459 26.2364 6.76184Z" fill="#EAA315"/>
<path d="M29.4933 6.76184C29.9987 7.21292 30.3976 7.56901 30.3976 8.29583C30.3976 9.02266 29.9987 9.38146 29.4933 9.83037C28.7245 10.3677 28.2547 11.2367 28.2264 12.1742C28.2264 12.474 28.4694 12.7171 28.7692 12.7171C29.069 12.7171 29.312 12.474 29.312 12.1742C29.312 11.4474 29.711 11.0913 30.2163 10.6403C30.985 10.1026 31.4547 9.23348 31.4833 8.29583C31.4547 7.35833 30.985 6.48942 30.2163 5.95196C29.711 5.50088 29.312 5.1448 29.312 4.41851C29.312 3.69222 29.711 3.33668 30.2163 2.8856C30.985 2.34869 31.4548 1.48005 31.4833 0.542814C31.4833 0.243045 31.2402 0 30.9405 0C30.6407 0 30.3976 0.243045 30.3976 0.542814C30.3976 1.26856 29.9987 1.6241 29.4933 2.07518C28.7245 2.61229 28.2547 3.48114 28.2264 4.41851C28.255 5.35582 28.7247 6.22459 29.4933 6.76184Z" fill="#EAA315"/>
</svg>
