<svg id="Layer_1" data-name="Layer 1" xmlns="http://www.w3.org/2000/svg" viewBox="0 0 300 300"><defs><style>.cls-1{fill:#7896cd;}.cls-2{fill:#b1ceec;}.cls-3{fill:#fff;}.cls-4,.cls-5,.cls-7{fill:none;stroke-linecap:round;stroke-miterlimit:10;}.cls-4{stroke:#fff;stroke-width:2px;}.cls-5{stroke:#fdbb48;}.cls-5,.cls-7{stroke-width:5px;}.cls-6{fill:#fdbb47;}.cls-7{stroke:#7896cd;}</style></defs><path class="cls-1" d="M244.19,129.22V185A22.22,22.22,0,0,1,222,207.24H143.56A22.22,22.22,0,0,1,121.33,185v-55.8A22.24,22.24,0,0,1,142.51,107c.35,0,.69,0,1.05,0H222a22,22,0,0,1,2.43.13A22.22,22.22,0,0,1,244.19,129.22Z"/><path class="cls-2" d="M215.61,85.72V107c-.63-.06-1.27-.09-1.91-.09H202.62V86.46A14.71,14.71,0,0,0,197,75.15a21.15,21.15,0,0,0-13.55-4.68c-10.58,0-19.16,7.16-19.16,16V106.9H152.12l-.82,0V85.72c0-14.82,14.39-26.84,32.15-26.84a35.48,35.48,0,0,1,22.74,7.87C212,71.6,215.61,78.31,215.61,85.72Z"/><circle class="cls-3" cx="164.64" cy="153.57" r="4.42"/><path class="cls-4" d="M175.69,158.24a7.76,7.76,0,0,1,15.52,0"/><circle class="cls-3" cx="202.27" cy="153.57" r="4.42"/><path class="cls-5" d="M57.3,97.23V94.94a3.85,3.85,0,0,1,3.86-3.85h0A3.85,3.85,0,0,1,65,94.94v2.29"/><polyline class="cls-5" points="109.78 137.71 101.34 137.71 22.48 137.71 10.88 137.71"/><path class="cls-6" d="M99.8,136c0,.59,0,1.16,0,1.74H20.9c0-.58,0-1.15,0-1.74a39.47,39.47,0,0,1,78.94,0Z"/><path class="cls-7" d="M123.06,163.59a30.52,30.52,0,0,1-29.9,7.74c-15.7-4.34-21.52-20.1-21.52-20.1"/><path class="cls-7" d="M78.41,142.74a14.57,14.57,0,0,1-27.75-1"/><path class="cls-7" d="M217.55,167.16a30.54,30.54,0,0,1,29.9-7.73c15.71,4.33,21.52,20.1,21.52,20.1"/><path class="cls-7" d="M262.2,188A14.57,14.57,0,0,1,290,189"/><path class="cls-4" d="M31.46,124.58A25.14,25.14,0,0,1,48.8,106.93"/><path class="cls-7" d="M167,192.93s-2.35,34.62,3.91,44a.74.74,0,0,1-.63,1.17c-2.87-.08-8.78-.08-12,1.13"/><path class="cls-7" d="M206.9,192.93s2.34,34.62-3.92,44a.74.74,0,0,0,.64,1.17c2.87-.08,8.77-.08,12,1.13"/></svg>