<svg id="Layer_1" data-name="Layer 1" xmlns="http://www.w3.org/2000/svg" viewBox="0 0 500 300"><defs><style>.cls-1{fill:#f8edd7;}.cls-2,.cls-3,.cls-4,.cls-6{fill:none;stroke-linecap:round;stroke-miterlimit:10;}.cls-2{stroke:#7896cd;}.cls-2,.cls-4{stroke-width:5px;}.cls-3,.cls-4{stroke:#fdbb48;}.cls-3,.cls-6{stroke-width:2px;}.cls-5{fill:#fdbb47;}.cls-6{stroke:#fff;}.cls-7{fill:#7896cd;}.cls-8{fill:#b1ceec;}.cls-9{fill:#fff;}</style></defs><path class="cls-1" d="M55.41,284.69A51.6,51.6,0,0,1,5.74,247.13c-4.79-16.95-6.85-37.64.94-57.65,17.85-45.86,54.47-59,62.92-69.34S74.3,86.34,79,75.07s23.48-33.81,61-28.17,62,12.2,89.21-8.45,68-33.56,134.18-12c56.34,18.36,66.77,52.17,64.69,66.77C425.88,108.8,416,137,437.64,150c29.46,17.65,66.47,35.34,60.17,89.4-.07.59-.15,1.17-.23,1.74-3.63,25.13-25.6,43.55-51,43.55Z"/><line class="cls-2" x1="387.56" y1="130.03" x2="383.16" y2="138.29"/><line class="cls-2" x1="381.23" y1="131.96" x2="389.49" y2="136.36"/><line class="cls-2" x1="49.91" y1="202.74" x2="45.52" y2="211"/><line class="cls-2" x1="43.58" y1="204.67" x2="51.84" y2="209.07"/><circle class="cls-3" cx="441.83" cy="218.41" r="4.19"/><circle class="cls-3" cx="193.95" cy="36.68" r="4.19"/><path class="cls-2" d="M299.12,181.15a30.25,30.25,0,0,1,29.61-7.67c15.55,4.3,21.31,19.91,21.31,19.91"/><path class="cls-2" d="M343.34,201.79a14.43,14.43,0,0,1,27.48,1"/><path class="cls-4" d="M154.23,117.69v-2.27a3.82,3.82,0,0,1,3.82-3.82h0a3.82,3.82,0,0,1,3.81,3.82v2.27"/><polyline class="cls-4" points="206.2 157.77 197.84 157.77 119.75 157.77 108.26 157.77"/><path class="cls-5" d="M196.31,156.05c0,.58,0,1.15,0,1.72H118.19c0-.57,0-1.14,0-1.72a39.08,39.08,0,1,1,78.16,0Z"/><path class="cls-2" d="M219.35,183.4a30.25,30.25,0,0,1-29.61,7.67c-15.55-4.3-21.31-19.92-21.31-19.92"/><path class="cls-2" d="M175.13,162.75a14.42,14.42,0,0,1-27.48-1"/><path class="cls-6" d="M128.64,144.76a24.87,24.87,0,0,1,17.17-17.47"/><path class="cls-7" d="M308.52,118.69V228.9c0,9.15-7.71,16.56-17.24,16.56h-54c-9.52,0-17.24-7.41-17.24-16.56V118.69c0-9.15,7.72-16.55,17.24-16.55h54C300.81,102.14,308.52,109.54,308.52,118.69Z"/><path class="cls-8" d="M308.52,118.69v1.7H220.07v-1.7c0-9.15,7.72-16.55,17.24-16.55h54C300.81,102.14,308.52,109.54,308.52,118.69Z"/><path class="cls-8" d="M308.52,228.9v-1.69H220.07v1.69c0,9.15,7.72,16.56,17.24,16.56h54C300.81,245.46,308.52,238.05,308.52,228.9Z"/><path class="cls-2" d="M241,245.46c0,12.32.85,28.18,5,34.43a.86.86,0,0,1-.73,1.35c-3.3-.1-10.09-.1-13.78,1.29"/><path class="cls-2" d="M297.4,282.53c-3.69-1.39-10.48-1.39-13.78-1.29a.86.86,0,0,1-.73-1.35c4.15-6.25,5-22.11,5-34.43"/><path class="cls-9" d="M300,211.57l-6,6a1.15,1.15,0,0,1-1.63,0l-7.75-7.76a1.15,1.15,0,0,0-1.63,0l-4.15,4.15a1.15,1.15,0,0,1-1.92-.51L270.63,190a1.15,1.15,0,0,1,1.37-1.42l24,5.64a1.15,1.15,0,0,1,.55,1.93l-4.4,4.41a1.14,1.14,0,0,0,0,1.62l7.76,7.76A1.15,1.15,0,0,1,300,211.57Z"/><circle class="cls-9" cx="245.66" cy="146.66" r="4.37"/><path class="cls-6" d="M256.61,151.28a7.69,7.69,0,0,1,15.37,0"/><circle class="cls-9" cx="282.93" cy="146.66" r="4.37"/></svg>