<svg id="Layer_1" data-name="Layer 1" xmlns="http://www.w3.org/2000/svg" viewBox="0 0 300 300"><defs><style>.cls-1{fill:#b1ceec;}.cls-2{fill:#7896cd;}.cls-3,.cls-5,.cls-7{fill:none;stroke-linecap:round;stroke-miterlimit:10;}.cls-3{stroke:#fdbb48;stroke-width:5px;}.cls-4{fill:#fdbb47;}.cls-5,.cls-7{stroke:#fff;}.cls-5{stroke-width:8px;}.cls-6{fill:#fff;}.cls-7{stroke-width:2px;}</style></defs><path class="cls-1" d="M114.29,157.06H273a0,0,0,0,1,0,0v2a20.76,20.76,0,0,1-20.76,20.76H135.05A20.76,20.76,0,0,1,114.29,159v-2a0,0,0,0,1,0,0Z"/><path class="cls-2" d="M114.29,179.8H273a0,0,0,0,1,0,0v2a20.76,20.76,0,0,1-20.76,20.76H135.05a20.76,20.76,0,0,1-20.76-20.76v-2A0,0,0,0,1,114.29,179.8Z"/><path class="cls-3" d="M177.63,153.71a32.6,32.6,0,0,1,31.92-8.26c16.77,4.63,23,21.47,23,21.47"/><path class="cls-3" d="M225.3,176a15.55,15.55,0,0,1,29.62,1.09"/><path class="cls-3" d="M104.29,153.71a32.59,32.59,0,0,0-31.92-8.26c-16.76,4.63-23,21.47-23,21.47"/><path class="cls-3" d="M56.62,176A15.55,15.55,0,0,0,27,177.06"/><path class="cls-3" d="M115,184.64s-2.51,37,4.18,47a.8.8,0,0,1-.68,1.25c-3.06-.09-9.37-.09-12.8,1.2"/><path class="cls-3" d="M168.34,184.64s2.5,37-4.18,47a.8.8,0,0,0,.67,1.25c3.07-.09,9.37-.09,12.8,1.2"/><circle class="cls-4" cx="141.66" cy="135.92" r="70.05"/><circle class="cls-5" cx="141.66" cy="135.92" r="51.75"/><circle class="cls-6" cx="121.58" cy="135.79" r="4.71"/><path class="cls-7" d="M133.38,140.77a8.29,8.29,0,0,1,16.57,0"/><circle class="cls-6" cx="161.75" cy="135.79" r="4.71"/></svg>