<svg id="Layer_1" data-name="Layer 1" xmlns="http://www.w3.org/2000/svg" viewBox="0 0 500 300"><defs><style>.cls-1{fill:#f8edd7;}.cls-11,.cls-13,.cls-2,.cls-3,.cls-4,.cls-6,.cls-8{fill:none;stroke-miterlimit:10;}.cls-11,.cls-2{stroke:#7896cd;}.cls-13,.cls-2,.cls-3,.cls-4,.cls-6,.cls-8{stroke-linecap:round;}.cls-11,.cls-13,.cls-2,.cls-4{stroke-width:5px;}.cls-3,.cls-4{stroke:#fdbb48;}.cls-3,.cls-8{stroke-width:2px;}.cls-5{fill:#fdbb47;}.cls-13,.cls-6,.cls-8{stroke:#fff;}.cls-6{stroke-width:8px;}.cls-7{fill:#fff;}.cls-9{fill:#7896cd;}.cls-10{fill:#b1ceec;}.cls-12{fill:#b2cdeb;}</style></defs><path class="cls-1" d="M55.41,284.69A51.6,51.6,0,0,1,5.74,247.13c-4.79-16.95-6.85-37.64.94-57.65,17.85-45.86,54.47-59,62.92-69.34S74.3,86.34,79,75.07s23.48-33.81,61-28.17,62,12.2,89.21-8.45,68-33.56,134.18-12c56.34,18.36,66.77,52.17,64.69,66.77C425.88,108.8,416,137,437.64,150c29.46,17.65,66.47,35.34,60.17,89.4-.07.59-.15,1.17-.23,1.74-3.63,25.13-25.6,43.55-51,43.55Z"/><line class="cls-2" x1="387.56" y1="130.03" x2="383.16" y2="138.29"/><line class="cls-2" x1="381.23" y1="131.96" x2="389.49" y2="136.36"/><line class="cls-2" x1="49.91" y1="202.74" x2="45.52" y2="211"/><line class="cls-2" x1="43.58" y1="204.67" x2="51.84" y2="209.07"/><circle class="cls-3" cx="441.83" cy="218.41" r="4.19"/><circle class="cls-3" cx="193.95" cy="36.68" r="4.19"/><path class="cls-4" d="M213.75,204.39a30.53,30.53,0,0,1-29.9,7.73c-15.7-4.33-21.52-20.1-21.52-20.1"/><path class="cls-4" d="M169.1,183.54a14.57,14.57,0,0,1-27.75-1"/><path class="cls-4" d="M300,206.84a30.53,30.53,0,0,1,29.9-7.74c15.71,4.34,21.52,20.1,21.52,20.1"/><path class="cls-4" d="M344.67,227.69a14.57,14.57,0,0,1,27.75,1"/><path class="cls-4" d="M241.34,235.81s-2.35,34.62,3.91,44.05a.74.74,0,0,1-.63,1.17c-2.87-.08-8.78-.08-12,1.13"/><path class="cls-4" d="M291.32,235.81s2.34,34.62-3.92,44.05A.74.74,0,0,0,288,281c2.88-.08,8.78-.08,12,1.13"/><circle class="cls-5" cx="266.33" cy="190.17" r="65.62"/><circle class="cls-6" cx="266.33" cy="190.17" r="48.48"/><circle class="cls-7" cx="247.51" cy="190.04" r="4.42"/><path class="cls-8" d="M258.57,194.71a7.76,7.76,0,1,1,15.52,0"/><circle class="cls-7" cx="285.14" cy="190.04" r="4.42"/><circle class="cls-9" cx="158.64" cy="159.9" r="29.13"/><circle class="cls-10" cx="158.64" cy="159.9" r="24.02"/><line class="cls-11" x1="170.58" y1="180.73" x2="179.32" y2="195.96"/><rect class="cls-12" x="182.39" y="191.89" width="9.63" height="35.67" rx="4" transform="matrix(0.87, -0.5, 0.5, 0.87, -79.52, 120.92)"/><line class="cls-13" x1="163.24" y1="153.2" x2="155.11" y2="168.46"/><line class="cls-13" x1="151.54" y1="156.77" x2="166.8" y2="164.9"/></svg>