<svg id="Layer_1" data-name="Layer 1" xmlns="http://www.w3.org/2000/svg" viewBox="0 0 300 300"><defs><style>.cls-1,.cls-2,.cls-4{fill:none;stroke-linecap:round;stroke-miterlimit:10;}.cls-1{stroke:#7896cd;}.cls-1,.cls-2{stroke-width:5px;}.cls-2{stroke:#fdbb48;}.cls-3{fill:#fdbb47;}.cls-4{stroke:#fff;stroke-width:2px;}.cls-5{fill:#7896cd;}.cls-6{fill:#b1ceec;}.cls-7{fill:#fff;}</style></defs><path class="cls-1" d="M209.58,138.81a30.23,30.23,0,0,1,29.61-7.66c15.55,4.29,21.31,19.91,21.31,19.91"/><path class="cls-1" d="M253.8,159.46a14.43,14.43,0,0,1,27.48,1"/><path class="cls-2" d="M64.69,75.35V73.09a3.82,3.82,0,0,1,3.82-3.82h0a3.82,3.82,0,0,1,3.82,3.82v2.26"/><polyline class="cls-2" points="116.66 115.43 108.3 115.43 30.21 115.43 18.72 115.43"/><path class="cls-3" d="M106.78,113.72c0,.57,0,1.14,0,1.71H28.65c0-.57,0-1.14,0-1.71a39.09,39.09,0,1,1,78.17,0Z"/><path class="cls-1" d="M129.81,141.07a30.23,30.23,0,0,1-29.61,7.66c-15.55-4.3-21.31-19.91-21.31-19.91"/><path class="cls-1" d="M85.59,120.42a14.43,14.43,0,0,1-27.48-1"/><path class="cls-4" d="M39.1,102.43A24.9,24.9,0,0,1,56.28,85"/><path class="cls-5" d="M219,76.35V186.57c0,9.15-7.71,16.55-17.24,16.55h-54c-9.52,0-17.24-7.4-17.24-16.55V76.35c0-9.14,7.72-16.55,17.24-16.55h54C211.27,59.8,219,67.21,219,76.35Z"/><path class="cls-6" d="M219,76.35v1.7H130.53v-1.7c0-9.14,7.72-16.55,17.24-16.55h54C211.27,59.8,219,67.21,219,76.35Z"/><path class="cls-6" d="M219,186.57v-1.7H130.53v1.7c0,9.15,7.72,16.55,17.24,16.55h54C211.27,203.12,219,195.72,219,186.57Z"/><path class="cls-1" d="M151.45,203.12c0,12.32.85,28.19,5,34.44a.85.85,0,0,1-.73,1.34c-3.3-.1-10.09-.1-13.78,1.3"/><path class="cls-1" d="M207.86,240.2c-3.69-1.4-10.48-1.4-13.78-1.3a.86.86,0,0,1-.73-1.34c4.15-6.25,5-22.12,5-34.44"/><path class="cls-7" d="M210.41,169.23l-6,6a1.14,1.14,0,0,1-1.62,0l-7.76-7.75a1.15,1.15,0,0,0-1.63,0l-4.14,4.15a1.16,1.16,0,0,1-1.93-.52l-6.28-23.41a1.15,1.15,0,0,1,1.37-1.42l24,5.65a1.15,1.15,0,0,1,.55,1.93l-4.4,4.4a1.15,1.15,0,0,0,0,1.63l7.76,7.75A1.15,1.15,0,0,1,210.41,169.23Z"/><circle class="cls-7" cx="156.12" cy="104.33" r="4.37"/><path class="cls-4" d="M167.07,109a7.69,7.69,0,0,1,15.37,0"/><circle class="cls-7" cx="193.39" cy="104.33" r="4.37"/></svg>