<svg id="Layer_1" data-name="Layer 1" xmlns="http://www.w3.org/2000/svg" viewBox="0 0 500 300"><defs><style>.cls-1{fill:#f8edd7;}.cls-2,.cls-6,.cls-7,.cls-9{fill:none;stroke-linecap:round;stroke-miterlimit:10;}.cls-2{stroke:#7896cd;}.cls-2,.cls-7{stroke-width:5px;}.cls-3{fill:#7896cd;}.cls-4{fill:#b1ceec;}.cls-5{fill:#fff;}.cls-6{stroke:#fff;}.cls-6,.cls-9{stroke-width:2px;}.cls-7,.cls-9{stroke:#fdbb48;}.cls-8{fill:#fdbb47;}</style></defs><path class="cls-1" d="M55,284.69A51.6,51.6,0,0,1,5.29,247.13c-4.79-16.95-6.84-37.64,1-57.65,17.84-45.86,54.46-59,62.91-69.34s4.7-33.8,9.39-45.07,23.48-33.81,61-28.17,62,12.2,89.21-8.45,68-33.56,134.18-12c56.34,18.36,66.78,52.17,64.69,66.77-2.23,15.58-12.13,43.8,9.53,56.78,29.46,17.65,66.47,35.34,60.17,89.4-.07.59-.15,1.17-.23,1.74-3.63,25.13-25.6,43.55-51,43.55Z"/><line class="cls-2" x1="387.11" y1="130.03" x2="382.71" y2="138.29"/><line class="cls-2" x1="380.78" y1="131.96" x2="389.04" y2="136.36"/><line class="cls-2" x1="49.47" y1="202.74" x2="45.07" y2="211"/><line class="cls-2" x1="43.14" y1="204.67" x2="51.4" y2="209.07"/><path class="cls-3" d="M332.15,171.91v55.8a22.22,22.22,0,0,1-22.22,22.23H231.52a22.22,22.22,0,0,1-22.22-22.23v-55.8a22.21,22.21,0,0,1,21.18-22.19c.34,0,.69,0,1,0h78.41a21.72,21.72,0,0,1,2.43.13A22.23,22.23,0,0,1,332.15,171.91Z"/><path class="cls-4" d="M303.57,128.41v21.28c-.63-.06-1.26-.09-1.91-.09H290.59V129.16A14.78,14.78,0,0,0,285,117.84a21.19,21.19,0,0,0-13.55-4.68c-10.59,0-19.17,7.16-19.17,16V149.6h-13v-21.2c0-14.81,14.39-26.83,32.15-26.83a35.47,35.47,0,0,1,22.73,7.86C300,114.29,303.57,121,303.57,128.41Z"/><circle class="cls-5" cx="252.6" cy="196.27" r="4.42"/><path class="cls-6" d="M263.66,200.93a7.76,7.76,0,1,1,15.52,0"/><circle class="cls-5" cx="290.23" cy="196.27" r="4.42"/><path class="cls-7" d="M145.26,139.93v-2.29a3.86,3.86,0,0,1,3.86-3.86h0a3.86,3.86,0,0,1,3.86,3.86v2.29"/><polyline class="cls-7" points="197.75 180.4 189.31 180.4 110.45 180.4 98.85 180.4"/><path class="cls-8" d="M187.77,178.67c0,.58,0,1.15,0,1.73H108.87c0-.58,0-1.15,0-1.73a39.47,39.47,0,0,1,78.94,0Z"/><path class="cls-2" d="M211,206.29a30.55,30.55,0,0,1-29.9,7.74c-15.71-4.34-21.52-20.11-21.52-20.11"/><path class="cls-2" d="M166.38,185.44a14.57,14.57,0,0,1-27.75-1"/><path class="cls-2" d="M305.52,209.86a30.52,30.52,0,0,1,29.9-7.74c15.7,4.34,21.52,20.11,21.52,20.11"/><path class="cls-2" d="M350.17,230.71a14.57,14.57,0,0,1,27.75,1"/><path class="cls-6" d="M119.43,167.27a25.12,25.12,0,0,1,17.34-17.65"/><path class="cls-2" d="M254.93,235.62s-2.34,34.62,3.92,44.06a.75.75,0,0,1-.63,1.17c-2.88-.09-8.78-.09-12,1.12"/><path class="cls-2" d="M294.86,235.62s2.35,34.62-3.91,44.06a.75.75,0,0,0,.63,1.17c2.87-.09,8.78-.09,12,1.12"/><circle class="cls-9" cx="441.38" cy="218.41" r="4.19"/><circle class="cls-9" cx="193.5" cy="36.68" r="4.19"/></svg>