<svg id="Layer_1" data-name="Layer 1" xmlns="http://www.w3.org/2000/svg" viewBox="0 0 500 300"><defs><style>.cls-1{fill:#f8edd7;}.cls-10,.cls-2,.cls-3,.cls-6,.cls-8{fill:none;stroke-linecap:round;stroke-miterlimit:10;}.cls-2{stroke:#7896cd;}.cls-2,.cls-6{stroke-width:5px;}.cls-3,.cls-6{stroke:#fdbb48;}.cls-10,.cls-3{stroke-width:2px;}.cls-4{fill:#b1ceec;}.cls-5{fill:#7896cd;}.cls-7{fill:#fdbb47;}.cls-10,.cls-8{stroke:#fff;}.cls-8{stroke-width:8px;}.cls-9{fill:#fff;}</style></defs><path class="cls-1" d="M55.41,284.69A51.6,51.6,0,0,1,5.74,247.13c-4.79-16.95-6.85-37.64.94-57.65,17.85-45.86,54.47-59,62.92-69.34S74.3,86.34,79,75.07s23.48-33.81,61-28.17,62,12.2,89.21-8.45,68-33.56,134.18-12c56.34,18.36,66.77,52.17,64.69,66.77C425.88,108.8,416,137,437.64,150c29.46,17.65,66.47,35.34,60.17,89.4-.07.59-.15,1.17-.23,1.74-3.63,25.13-25.6,43.55-51,43.55Z"/><line class="cls-2" x1="387.56" y1="130.03" x2="383.16" y2="138.29"/><line class="cls-2" x1="381.23" y1="131.96" x2="389.49" y2="136.36"/><line class="cls-2" x1="49.91" y1="202.74" x2="45.52" y2="211"/><line class="cls-2" x1="43.58" y1="204.67" x2="51.84" y2="209.07"/><circle class="cls-3" cx="441.83" cy="218.41" r="4.19"/><circle class="cls-3" cx="193.95" cy="36.68" r="4.19"/><path class="cls-4" d="M222.47,204.89H381.18a0,0,0,0,1,0,0v2a20.76,20.76,0,0,1-20.76,20.76H243.23a20.76,20.76,0,0,1-20.76-20.76v-2a0,0,0,0,1,0,0Z"/><path class="cls-5" d="M222.47,227.63H381.18a0,0,0,0,1,0,0v2a20.76,20.76,0,0,1-20.76,20.76H243.23a20.76,20.76,0,0,1-20.76-20.76v-2A0,0,0,0,1,222.47,227.63Z"/><path class="cls-6" d="M285.81,201.54a32.6,32.6,0,0,1,31.92-8.26c16.76,4.63,23,21.46,23,21.46"/><path class="cls-6" d="M333.48,223.8a15.55,15.55,0,0,1,29.62,1.09"/><path class="cls-6" d="M212.47,201.54a32.6,32.6,0,0,0-31.92-8.26c-16.77,4.63-23,21.46-23,21.46"/><path class="cls-6" d="M164.8,223.8a15.55,15.55,0,0,0-29.62,1.09"/><path class="cls-6" d="M223.16,232.47s-2.5,37,4.19,47a.8.8,0,0,1-.68,1.25c-3.07-.09-9.37-.09-12.8,1.2"/><path class="cls-6" d="M276.52,232.47s2.5,37-4.18,47a.8.8,0,0,0,.67,1.25c3.07-.09,9.37-.09,12.8,1.2"/><circle class="cls-7" cx="249.84" cy="183.75" r="70.05"/><circle class="cls-8" cx="249.84" cy="183.75" r="51.75"/><circle class="cls-9" cx="229.76" cy="183.62" r="4.71"/><path class="cls-10" d="M241.56,188.6a8.29,8.29,0,1,1,16.57,0"/><circle class="cls-9" cx="269.93" cy="183.62" r="4.71"/></svg>