<svg id="Layer_1" data-name="Layer 1" xmlns="http://www.w3.org/2000/svg" viewBox="0 0 300 300"><defs><style>.cls-1,.cls-10,.cls-3,.cls-5,.cls-8{fill:none;stroke-miterlimit:10;}.cls-1{stroke:#fdbb48;}.cls-1,.cls-10,.cls-3,.cls-5{stroke-linecap:round;}.cls-1,.cls-10,.cls-8{stroke-width:5px;}.cls-2{fill:#fdbb47;}.cls-10,.cls-3,.cls-5{stroke:#fff;}.cls-3{stroke-width:8px;}.cls-4{fill:#fff;}.cls-5{stroke-width:2px;}.cls-6{fill:#7896cd;}.cls-7{fill:#b1ceec;}.cls-8{stroke:#7896cd;}.cls-9{fill:#b2cdeb;}</style></defs><path class="cls-1" d="M112.22,151a31,31,0,0,1-30.35,7.86C65.93,154.5,60,138.49,60,138.49"/><path class="cls-1" d="M66.89,129.88a14.79,14.79,0,0,1-28.17-1"/><path class="cls-1" d="M199.8,153.53a31,31,0,0,1,30.36-7.86C246.1,150.08,252,166.09,252,166.09"/><path class="cls-1" d="M245.13,174.7a14.79,14.79,0,0,1,28.17,1"/><path class="cls-1" d="M140.23,182.94s-2.38,35.15,4,44.73a.75.75,0,0,1-.64,1.18c-2.91-.08-8.91-.08-12.17,1.15"/><path class="cls-1" d="M191,182.94s2.38,35.15-4,44.73a.75.75,0,0,0,.64,1.18c2.92-.08,8.91-.08,12.17,1.15"/><circle class="cls-2" cx="165.6" cy="136.61" r="66.61"/><circle class="cls-3" cx="165.6" cy="136.61" r="49.21"/><circle class="cls-4" cx="146.5" cy="136.48" r="4.48"/><path class="cls-5" d="M157.72,141.22a7.88,7.88,0,1,1,15.75,0"/><circle class="cls-4" cx="184.7" cy="136.48" r="4.48"/><circle class="cls-6" cx="56.28" cy="105.89" r="29.57"/><circle class="cls-7" cx="56.28" cy="105.89" r="24.38"/><line class="cls-8" x1="68.4" y1="127.03" x2="77.26" y2="142.49"/><rect class="cls-9" x="80.39" y="138.36" width="9.78" height="36.21" rx="4.06" transform="translate(-66.53 63.15) rotate(-29.83)"/><line class="cls-10" x1="60.94" y1="99.08" x2="52.69" y2="114.58"/><line class="cls-10" x1="49.07" y1="102.7" x2="64.56" y2="110.95"/></svg>