<svg width="16" height="16" viewBox="0 0 16 16" fill="none" xmlns="http://www.w3.org/2000/svg">
<g clip-path="url(#clip0)">
<path d="M11.4382 16H1.37603C0.872872 16 0.464966 15.5921 0.464966 15.0889V0.911062C0.464966 0.407906 0.872841 0 1.37603 0H11.4382C11.9413 0 12.3492 0.407906 12.3492 0.911062V15.0889C12.3492 15.5921 11.9414 16 11.4382 16Z" fill="#FFE2C7"/>
<path d="M11.438 0H10.5977V4.144C10.5977 9.64506 6.13628 14.1046 0.632841 14.1046H0.464966V15.0891C0.464966 15.5922 0.872935 16 1.37622 16H11.438C11.9413 16 12.3492 15.5922 12.3492 15.0891V0.910875C12.3492 0.407813 11.9412 0 11.438 0V0Z" fill="#F7D4AD"/>
<path d="M11.0363 11.0562H2.60157C2.46766 11.0562 2.35913 10.9477 2.35913 10.8138C2.35913 10.68 2.46766 10.5715 2.60157 10.5715H11.0363C11.1702 10.5715 11.2787 10.68 11.2787 10.8138C11.2787 10.9477 11.1702 11.0562 11.0363 11.0562Z" fill="#E2A876"/>
<path d="M11.0363 12.3581H2.60157C2.46766 12.3581 2.35913 12.2496 2.35913 12.1157C2.35913 11.9819 2.46766 11.8734 2.60157 11.8734H11.0363C11.1702 11.8734 11.2787 11.9819 11.2787 12.1157C11.2787 12.2496 11.1702 12.3581 11.0363 12.3581Z" fill="#E2A876"/>
<path d="M11.0363 13.66H2.60157C2.46766 13.66 2.35913 13.5515 2.35913 13.4176C2.35913 13.2838 2.46766 13.1753 2.60157 13.1753H11.0363C11.1702 13.1753 11.2787 13.2838 11.2787 13.4176C11.2787 13.5515 11.1702 13.66 11.0363 13.66Z" fill="#E2A876"/>
<path d="M11.0363 14.9619H2.60157C2.46766 14.9619 2.35913 14.8534 2.35913 14.7195C2.35913 14.5857 2.46766 14.4772 2.60157 14.4772H11.0363C11.1702 14.4772 11.2787 14.5857 11.2787 14.7195C11.2787 14.8534 11.1702 14.9619 11.0363 14.9619Z" fill="#E2A876"/>
<path d="M11.0363 8.45237H2.60157C2.46766 8.45237 2.35913 8.34387 2.35913 8.21003C2.35913 8.07619 2.46766 7.96769 2.60157 7.96769H11.0363C11.1702 7.96769 11.2787 8.07619 11.2787 8.21003C11.2787 8.34387 11.1702 8.45237 11.0363 8.45237Z" fill="#E2A876"/>
<path d="M11.0363 9.75425H2.60157C2.46766 9.75425 2.35913 9.64575 2.35913 9.51191C2.35913 9.37806 2.46766 9.26956 2.60157 9.26956H11.0363C11.1702 9.26956 11.2787 9.37806 11.2787 9.51191C11.2787 9.64578 11.1702 9.75425 11.0363 9.75425Z" fill="#E2A876"/>
<path d="M1.70972 11.0562C1.84362 11.0562 1.95216 10.9477 1.95216 10.8138C1.95216 10.68 1.84362 10.5715 1.70972 10.5715C1.57583 10.5715 1.46729 10.68 1.46729 10.8138C1.46729 10.9477 1.57583 11.0562 1.70972 11.0562Z" fill="#E2A876"/>
<path d="M1.70972 8.45237C1.84362 8.45237 1.95216 8.34387 1.95216 8.21003C1.95216 8.07619 1.84362 7.96769 1.70972 7.96769C1.57583 7.96769 1.46729 8.07619 1.46729 8.21003C1.46729 8.34387 1.57583 8.45237 1.70972 8.45237Z" fill="#E2A876"/>
<path d="M1.70972 9.75428C1.84362 9.75428 1.95216 9.64578 1.95216 9.51194C1.95216 9.37809 1.84362 9.26959 1.70972 9.26959C1.57583 9.26959 1.46729 9.37809 1.46729 9.51194C1.46729 9.64578 1.57583 9.75428 1.70972 9.75428Z" fill="#E2A876"/>
<path d="M1.70972 12.3581C1.84362 12.3581 1.95216 12.2496 1.95216 12.1157C1.95216 11.9819 1.84362 11.8734 1.70972 11.8734C1.57583 11.8734 1.46729 11.9819 1.46729 12.1157C1.46729 12.2496 1.57583 12.3581 1.70972 12.3581Z" fill="#E2A876"/>
<path d="M1.70972 13.66C1.84362 13.66 1.95216 13.5515 1.95216 13.4176C1.95216 13.2838 1.84362 13.1753 1.70972 13.1753C1.57583 13.1753 1.46729 13.2838 1.46729 13.4176C1.46729 13.5515 1.57583 13.66 1.70972 13.66Z" fill="#E2A876"/>
<path d="M1.70972 14.9619C1.84362 14.9619 1.95216 14.8534 1.95216 14.7195C1.95216 14.5857 1.84362 14.4772 1.70972 14.4772C1.57583 14.4772 1.46729 14.5857 1.46729 14.7195C1.46729 14.8534 1.57583 14.9619 1.70972 14.9619Z" fill="#E2A876"/>
<path d="M7.60994 6.68006H5.19284C4.81944 6.68006 4.53831 6.34018 4.6086 5.97369L4.70353 5.47781C4.73081 5.33556 4.78603 5.20294 4.86438 5.08644C4.98813 4.90078 5.16972 4.75572 5.38666 4.67697L6.40828 4.30653L7.42203 4.67413C7.64006 4.75331 7.82228 4.89947 7.94625 5.08666V5.08688C8.02569 5.20622 8.08112 5.34191 8.10731 5.48762L8.1955 5.98065C8.26075 6.34522 7.98053 6.68006 7.60994 6.68006Z" fill="#B8B6FF"/>
<path d="M6.96728 4.51069L6.39568 5.00943L5.82446 4.51069V3.74506H6.96728V4.51069Z" fill="#ECBD83"/>
<path d="M7.30351 2.39453V3.04344C7.30351 3.55228 6.88688 3.98084 6.37791 3.97103C5.88466 3.96153 5.48792 3.55891 5.48792 3.06375V2.39453C5.48792 1.89337 5.89435 1.63184 6.3957 1.63184C6.8971 1.63184 7.30351 1.89337 7.30351 2.39453Z" fill="#F7D4AD"/>
<path d="M5.45212 5.80397V6.68009H5.19284C4.81944 6.68009 4.53831 6.34022 4.6086 5.97372L4.70353 5.47784C4.73081 5.33559 4.78603 5.20297 4.86437 5.08647C5.19981 5.15343 5.45212 5.44925 5.45212 5.80397Z" fill="#A09EEF"/>
<path d="M7.60989 6.68006H7.35999V5.80393C7.35999 5.44987 7.61164 5.15428 7.94621 5.08687C8.02565 5.20622 8.08108 5.3419 8.10727 5.48762L8.19546 5.98065C8.26071 6.34522 7.98049 6.68006 7.60989 6.68006Z" fill="#A09EEF"/>
<path d="M7.30348 2.35028C7.26948 2.37635 7.2442 2.39506 7.2442 2.39506C7.17988 2.43219 7.11007 2.46619 7.03523 2.49622C6.69479 2.63241 6.36195 2.63741 6.20095 2.52466C6.20095 2.52466 6.03282 2.39928 5.96985 2.31922C5.90688 2.23916 5.7066 2.21888 5.5406 2.39506C5.5232 2.4135 5.50554 2.42563 5.48792 2.43272V2.39506C5.48792 1.89356 5.89451 1.48713 6.39623 1.48713C6.6471 1.48713 6.87423 1.58878 7.03838 1.75316C7.19307 1.9075 7.29216 2.11716 7.30348 2.35028Z" fill="#6E4848"/>
<path d="M13.2531 10.8924L12.4291 10.2474C12.3822 10.2108 12.3163 10.2108 12.2695 10.2474L11.4454 10.8924C11.3604 10.9589 11.2361 10.8984 11.2361 10.7904V6.16672C11.2361 6.09522 11.2941 6.03728 11.3656 6.03728H13.333C13.4045 6.03728 13.4625 6.09525 13.4625 6.16672V10.7904C13.4625 10.8984 13.3381 10.9589 13.2531 10.8924Z" fill="#FF445C"/>
<path d="M15.535 4.3795C15.535 4.78594 15.0934 5.10159 14.9467 5.455C14.7947 5.82131 14.8779 6.35547 14.6016 6.6315C14.3255 6.9075 13.7914 6.82403 13.4249 6.9759C13.0715 7.12237 12.7557 7.56394 12.3493 7.56394C11.9428 7.56394 11.627 7.12237 11.2736 6.9759C10.9072 6.82406 10.3731 6.9075 10.0969 6.6315C9.82067 6.35547 9.90382 5.82131 9.75182 5.455C9.60517 5.10159 9.16357 4.7859 9.16357 4.3795C9.16357 3.97306 9.6052 3.6574 9.75186 3.304C9.90386 2.93769 9.82073 2.40353 10.0969 2.1275C10.3731 1.8515 10.9072 1.93497 11.2737 1.78309C11.6271 1.63662 11.9429 1.19506 12.3493 1.19506C12.7558 1.19506 13.0715 1.63662 13.425 1.78309C13.7914 1.93494 14.3255 1.8515 14.6017 2.1275C14.8779 2.40353 14.7948 2.93769 14.9468 3.304C15.0934 3.6574 15.535 3.97306 15.535 4.3795Z" fill="#FF8B59"/>
<path d="M12.4021 2.80456L12.9137 3.56847C12.9221 3.581 12.9347 3.59016 12.9492 3.59425L13.8342 3.84456C13.8777 3.85687 13.8948 3.90944 13.8668 3.94497L13.2981 4.6674C13.2887 4.67925 13.2839 4.69406 13.2845 4.70912L13.3198 5.62772C13.3215 5.6729 13.2768 5.7054 13.2344 5.68978L12.3712 5.37237C12.3571 5.36715 12.3415 5.36715 12.3274 5.37237L11.4642 5.68978C11.4218 5.7054 11.377 5.6729 11.3788 5.62772L11.414 4.70912C11.4146 4.69406 11.4098 4.67925 11.4005 4.6674L10.8318 3.94497C10.8038 3.90944 10.8209 3.85687 10.8644 3.84456L11.7493 3.59425C11.7639 3.59016 11.7764 3.581 11.7848 3.56847L12.2964 2.80456C12.3217 2.76697 12.3769 2.76697 12.4021 2.80456Z" fill="#FEE07D"/>
</g>
<defs>
<clipPath id="clip0">
<rect width="16" height="16" fill="white"/>
</clipPath>
</defs>
</svg>
