<svg width="32" height="32" viewBox="0 0 32 32" fill="none" xmlns="http://www.w3.org/2000/svg">
<path d="M32 5.7475V26.2525C32 29.4219 29.4219 32 26.2525 32H5.7475C2.57812 32 0 29.4219 0 26.2525V5.7475C0 2.57812 2.57812 0 5.7475 0H26.2525C29.4219 0 32 2.57812 32 5.7475Z" fill="#E8814D"/>
<path d="M32 5.7475V26.2525C32 29.4219 29.4219 32 26.2525 32H16V0H26.2525C29.4219 0 32 2.57812 32 5.7475Z" fill="#E8814D"/>
<path d="M27.0431 24.9725H4.95684C3.71184 24.9725 3.71122 23.09 4.95684 23.09H27.0431C28.2881 23.09 28.2887 24.9725 27.0431 24.9725Z" fill="white"/>
<path d="M27.0431 24.9725H16V23.09H27.0431C28.2881 23.09 28.2887 24.9725 27.0431 24.9725Z" fill="white"/>
<path d="M26.9488 16.8469H4.86252C3.61752 16.8469 3.61752 14.965 4.86252 14.965H26.9488C28.1944 14.965 28.1944 16.8469 26.9488 16.8469Z" fill="white"/>
<path d="M26.9487 16.8469H16V14.965H26.9487C28.1944 14.965 28.1944 16.8469 26.9487 16.8469Z" fill="white"/>
<path d="M26.9488 8.81561H4.86252C3.61752 8.81561 3.61752 6.93311 4.86252 6.93311H26.9488C28.1944 6.93311 28.1944 8.81561 26.9488 8.81561Z" fill="white"/>
<path d="M26.9487 8.81561H16V6.93311H26.9487C28.1944 6.93311 28.1944 8.81561 26.9487 8.81561Z" fill="white"/>
<path d="M22.0235 18.949C23.6522 18.949 24.9725 17.6287 24.9725 16C24.9725 14.3713 23.6522 13.051 22.0235 13.051C20.3948 13.051 19.0745 14.3713 19.0745 16C19.0745 17.6287 20.3948 18.949 22.0235 18.949Z" fill="#58B354"/>
<path d="M24.9726 16C24.9726 17.6264 23.6499 18.949 22.0236 18.949V13.051C23.6499 13.051 24.9726 14.3737 24.9726 16Z" fill="#00A963"/>
<path d="M13.9922 26.9804C15.6209 26.9804 16.9412 25.6601 16.9412 24.0314C16.9412 22.4027 15.6209 21.0824 13.9922 21.0824C12.3635 21.0824 11.0432 22.4027 11.0432 24.0314C11.0432 25.6601 12.3635 26.9804 13.9922 26.9804Z" fill="#FFEC00"/>
<path d="M16.9412 24.0313C16.9412 25.6577 15.6185 26.9803 13.9922 26.9803V21.0823C15.6185 21.0823 16.9412 22.405 16.9412 24.0313Z" fill="#FFD92E"/>
<path d="M9.9765 10.9176C11.6052 10.9176 12.9255 9.59728 12.9255 7.96859C12.9255 6.3399 11.6052 5.01959 9.9765 5.01959C8.34781 5.01959 7.0275 6.3399 7.0275 7.96859C7.0275 9.59728 8.34781 10.9176 9.9765 10.9176Z" fill="#FF2828"/>
<path d="M12.9255 7.96862C12.9255 9.57425 11.6367 10.8831 10.0392 10.9164V5.02087C11.6367 5.05412 12.9255 6.363 12.9255 7.96862Z" fill="#CC0000"/>
</svg>
