<svg width="32" height="25" viewBox="0 0 32 25" fill="none" xmlns="http://www.w3.org/2000/svg">
<path d="M6.58901 18.7629C6.53757 18.8497 6.45787 18.8757 6.38306 18.8757C6.30824 18.8757 6.23343 18.8497 6.18199 18.7629L5.64385 17.825V19.7266C5.64385 19.8439 5.48954 19.9047 5.33991 19.9047C5.1854 19.9047 5.03577 19.8439 5.03577 19.7266V17.013C5.03577 16.8047 5.1854 16.731 5.33991 16.731C5.55968 16.731 5.65808 16.7744 5.81239 17.0304L6.38794 18.0029L6.96329 17.0304C7.1178 16.7744 7.22067 16.731 7.44064 16.731C7.59495 16.731 7.74458 16.8047 7.74458 17.013V19.7266C7.74458 19.8439 7.59027 19.9047 7.44064 19.9047C7.28613 19.9047 7.1365 19.8439 7.1365 19.7266V17.8597L6.58901 18.7629Z" fill="white"/>
<path d="M9.29368 18.0942H9.83783C9.93086 18.0942 9.98452 18.2028 9.98452 18.32C9.98452 18.4198 9.93801 18.5371 9.83783 18.5371H9.29368V19.4097H10.3067C10.3999 19.4097 10.4535 19.5268 10.4535 19.6615C10.4535 19.7787 10.407 19.9047 10.3067 19.9047H9.03234C8.92858 19.9047 8.82825 19.8438 8.82825 19.7266V16.909C8.82825 16.7919 8.92843 16.731 9.03234 16.731H10.3067C10.407 16.731 10.4535 16.857 10.4535 16.9741C10.4535 17.1088 10.3999 17.226 10.3067 17.226H9.29368V18.0942Z" fill="white"/>
<path d="M13.0788 19.7266L12.118 17.9814V19.7266C12.118 19.8439 11.9707 19.9047 11.8276 19.9047C11.6802 19.9047 11.5371 19.8439 11.5371 19.7266V16.909C11.5371 16.7876 11.6802 16.7311 11.8276 16.7311C12.0377 16.7311 12.1225 16.7745 12.2611 17.0305L13.1234 18.65V16.9047C13.1234 16.7832 13.2663 16.731 13.4139 16.731C13.5568 16.731 13.7042 16.783 13.7042 16.9047V19.7266C13.7042 19.8438 13.5568 19.9047 13.4139 19.9047C13.2753 19.9047 13.1547 19.8613 13.0788 19.7266Z" fill="white"/>
<path d="M15.9728 16.9031C15.9728 16.7826 16.0811 16.731 16.1928 16.731C16.3012 16.731 16.4129 16.7826 16.4129 16.9031V18.9185C16.4129 19.6377 16.054 19.9047 15.6002 19.9047C15.1431 19.9047 14.7876 19.6377 14.7876 18.9185V16.9031C14.7876 16.7826 14.8959 16.731 15.0077 16.731C15.116 16.731 15.2277 16.7826 15.2277 16.9031V18.9185C15.2277 19.2544 15.3666 19.4139 15.6002 19.4139C15.8339 19.4139 15.9726 19.2544 15.9726 18.9185V16.9031H15.9728Z" fill="white"/>
<path d="M17.1414 20.4336H15.1428C14.9466 20.4336 14.7876 20.6704 14.7876 20.9626C14.7876 21.2549 14.9466 21.4915 15.1428 21.4915H17.1414C17.3376 21.4915 17.4964 21.2549 17.4964 20.9626C17.4964 20.6704 17.3376 20.4336 17.1414 20.4336Z" fill="white"/>
<path d="M13.3543 20.4336H5.38549C5.19236 20.4336 5.03577 20.6704 5.03577 20.9626C5.03577 21.2549 5.19236 21.4915 5.38549 21.4915H13.3543C13.5476 21.4915 13.704 21.2549 13.704 20.9626C13.704 20.6704 13.5476 20.4336 13.3543 20.4336Z" fill="white"/>
<path d="M17.141 15.1441H5.39108C5.19486 15.1441 5.03577 15.2628 5.03577 15.4091C5.03577 15.5555 5.19486 15.6741 5.39108 15.6741H17.141C17.3374 15.6741 17.4963 15.5555 17.4963 15.4091C17.4963 15.2628 17.3374 15.1441 17.141 15.1441Z" fill="white"/>
<path d="M16.9433 10.7355H16.5984C16.4653 8.38778 14.6756 6.45579 12.3333 5.99848L12.4018 5.36985C12.4243 5.16469 12.3545 4.95919 12.2106 4.80611C12.0666 4.65285 11.8607 4.565 11.6457 4.565H10.8866C10.6714 4.565 10.4656 4.65303 10.3215 4.80611C10.1776 4.95936 10.1079 5.16487 10.1304 5.36985L10.199 5.99848C7.85667 6.45579 6.06695 8.3876 5.93383 10.7353H5.58894C5.28392 10.7353 5.03577 10.9733 5.03577 11.2658V11.9689C5.03577 12.2614 5.28392 12.4994 5.58894 12.4994H16.9431C17.2482 12.4994 17.4963 12.2614 17.4963 11.9689V11.2658C17.4963 10.9735 17.2484 10.7355 16.9433 10.7355ZM10.8497 5.26219C10.8595 5.25184 10.8718 5.24658 10.8866 5.24658H11.6457C11.6603 5.24658 11.6727 5.25184 11.6826 5.26219C11.6925 5.27271 11.6967 5.28516 11.695 5.29901L11.6287 5.90782C11.5089 5.90011 11.388 5.89572 11.2662 5.89572C11.1443 5.89572 11.0236 5.90011 10.9038 5.90782L10.8372 5.29901C10.8358 5.28516 10.84 5.27271 10.8497 5.26219ZM16.7857 11.8179H5.74657V11.4169H7.24407C7.44047 11.4169 7.59956 11.2644 7.59956 11.0762C7.59956 10.8881 7.44047 10.7355 7.24407 10.7355H6.64591C6.79769 8.41811 8.81179 6.5773 11.266 6.5773C13.7205 6.5773 15.7346 8.41811 15.8864 10.7355H8.89755C8.70115 10.7355 8.54224 10.8881 8.54224 11.0762C8.54224 11.2644 8.70115 11.4169 8.89755 11.4169H16.7857V11.8179Z" fill="white"/>
<path d="M19.8188 0.862274H2.56242C2.05082 0.862274 1.6345 1.26543 1.6345 1.76085V2.39827H1.2945C0.668881 2.39827 0.159912 2.89132 0.159912 3.49715C0.159912 4.10298 0.668881 4.59603 1.2945 4.59603H1.6345V6.10497H1.2945C0.668881 6.10497 0.159912 6.59784 0.159912 7.20385C0.159912 7.80967 0.668881 8.30254 1.2945 8.30254H1.6345V9.81166H1.2945C0.668881 9.81166 0.159912 10.3045 0.159912 10.9105C0.159912 11.5164 0.668881 12.0092 1.2945 12.0092H1.6345V13.5184H1.2945C0.668881 13.5184 0.159912 14.0112 0.159912 14.6171C0.159912 15.2231 0.668881 15.7159 1.2945 15.7159H1.6345V17.2251H1.2945C0.668881 17.2251 0.159912 17.7179 0.159912 18.3237C0.159912 18.9298 0.668881 19.4226 1.2945 19.4226H1.6345V20.9317H1.2945C0.668881 20.9317 0.159912 21.4246 0.159912 22.0304C0.159912 22.6363 0.668881 23.1293 1.2945 23.1293H1.6345V23.7668C1.6345 24.2622 2.05082 24.6653 2.56242 24.6653H19.8188C20.3304 24.6653 20.7469 24.2622 20.7469 23.7668V1.76085C20.7469 1.26543 20.3304 0.862274 19.8188 0.862274V0.862274ZM1.63431 3.89032H1.2945C1.07077 3.89032 0.888672 3.71398 0.888672 3.49715C0.888672 3.2805 1.07077 3.10416 1.2945 3.10416H1.63431V3.89032ZM1.63431 7.59683H1.2945C1.07077 7.59683 0.888672 7.4205 0.888672 7.20385C0.888672 6.98701 1.07077 6.81086 1.2945 6.81086H1.63431V7.59683ZM1.63431 11.3035H1.2945C1.07077 11.3035 0.888672 11.1272 0.888672 10.9105C0.888672 10.6937 1.07077 10.5174 1.2945 10.5174H1.63431V11.3035ZM1.63431 15.0102H1.2945C1.07077 15.0102 0.888672 14.8339 0.888672 14.6171C0.888672 14.4004 1.07077 14.2241 1.2945 14.2241H1.63431V15.0102ZM1.63431 18.7167H1.2945C1.07077 18.7167 0.888672 18.5406 0.888672 18.3237C0.888672 18.1071 1.07077 17.9308 1.2945 17.9308H1.63431V18.7167ZM1.63431 22.4234H1.2945C1.07077 22.4234 0.888672 22.2471 0.888672 22.0304C0.888672 21.8136 1.07077 21.6375 1.2945 21.6375H1.63431V22.4234ZM20.018 23.7666C20.018 23.873 19.9287 23.9596 19.8188 23.9596H2.56242C2.45252 23.9596 2.36326 23.873 2.36326 23.7666V1.76085C2.36326 1.65461 2.45252 1.56798 2.56242 1.56798H19.8188C19.9287 1.56798 20.018 1.65461 20.018 1.76085V23.7666Z" fill="white"/>
<path d="M23.0109 21.2648C22.8119 21.2652 22.6503 21.1 22.6499 20.8959C22.6497 20.7975 22.6878 20.7031 22.7558 20.6335L30.4297 12.764L22.7558 4.89442C22.6149 4.74989 22.6149 4.51559 22.7558 4.37106C22.8967 4.22653 23.1252 4.22653 23.2661 4.37106L31.1944 12.5023C31.3351 12.6466 31.3351 12.8806 31.1944 13.025L23.2661 21.1562C23.1985 21.2257 23.1067 21.2648 23.0109 21.2648Z" fill="white"/>
</svg>
