<svg width="18" height="18" viewBox="0 0 18 18" fill="none" xmlns="http://www.w3.org/2000/svg">
<path d="M0 9C0 13.9628 4.03724 18 9 18C13.9628 18 18 13.9628 18 9C18 4.03724 13.9628 0 9 0C4.03724 0 0 4.03724 0 9ZM8.03025 4.71976L11.7803 8.46974C11.9265 8.61599 12 8.80798 12 9C12 9.19202 11.9265 9.38401 11.7803 9.53026L8.03025 13.2802C7.73701 13.5735 7.263 13.5735 6.96976 13.2802C6.67652 12.987 6.67652 12.513 6.96976 12.2197L10.1895 9L6.96976 5.78025C6.67652 5.48701 6.67652 5.013 6.96976 4.71976C7.263 4.42649 7.73701 4.42649 8.03025 4.71976Z" fill="#6D6E71"/>
</svg>
