<svg width="21" height="21" viewBox="0 0 21 21" fill="none" xmlns="http://www.w3.org/2000/svg">
<path d="M10.5 0.65625C5.07216 0.65625 0.65625 5.07216 0.65625 10.5C0.65625 15.9278 5.07216 20.3438 10.5 20.3438C15.9278 20.3438 20.3438 15.9278 20.3438 10.5C20.3438 5.07216 15.9278 0.65625 10.5 0.65625ZM10.5 19.6875C5.43391 19.6875 1.3125 15.5661 1.3125 10.5C1.3125 5.43391 5.43391 1.3125 10.5 1.3125C15.5661 1.3125 19.6875 5.43391 19.6875 10.5C19.6875 15.5661 15.5661 19.6875 10.5 19.6875Z" fill="white"/>
<path d="M5.04054 4.83029L4.58563 4.3573C4.38662 4.54925 4.195 4.75207 4.01654 4.96068L4.51513 5.38753C4.67997 5.19459 4.85691 5.00715 5.04054 4.83029Z" fill="white"/>
<path d="M1.99582 9.81774L2.65014 9.86967C2.76281 8.46176 3.25346 7.11037 4.07031 5.95813L3.53456 5.57874C2.64966 6.82759 2.11807 8.29205 1.99582 9.81774Z" fill="white"/>
<path d="M15.0937 4.04553C15.0938 3.69558 14.9646 3.35793 14.7311 3.09733C14.4975 2.83673 14.176 2.67151 13.8281 2.63335C13.4802 2.59519 13.1305 2.68678 12.846 2.89056C12.5615 3.09433 12.3623 3.39595 12.2864 3.73758C12.231 3.98696 12.1865 4.23875 12.1407 4.49022C11.6063 4.34317 11.0544 4.26976 10.5001 4.27201V2.62503H9.84375V6.56253C9.84301 6.9174 9.72795 7.26257 9.51562 7.54691C9.42014 7.67414 9.30657 7.78673 9.17852 7.8811C8.77189 8.18105 8.5399 8.68222 8.55848 9.22342L8.85905 16.7463C8.86216 16.8299 8.84826 16.9133 8.81819 16.9914C8.78812 17.0695 8.74251 17.1407 8.68412 17.2006C8.56464 17.3183 8.40367 17.3843 8.23598 17.3843C8.06829 17.3843 7.90732 17.3183 7.78784 17.2006C7.72938 17.1405 7.68373 17.0692 7.65365 16.991C7.62358 16.9127 7.6097 16.8291 7.61287 16.7454L7.84777 9.22154C7.86635 8.68226 7.63448 8.18109 7.2274 7.88115C7.09944 7.78663 6.98598 7.67392 6.89062 7.54658C6.67826 7.26239 6.56319 6.9173 6.5625 6.56253V2.62503H5.90625V6.2956C5.3015 6.953 4.8456 7.73306 4.56962 8.5826C4.29365 9.43215 4.20408 10.3312 4.30703 11.2185C4.40999 12.1058 4.70304 12.9605 5.16621 13.7242C5.62938 14.488 6.25178 15.143 6.99099 15.6444L6.95728 16.7238C6.95141 16.8955 6.98018 17.0666 7.04186 17.2269C7.10355 17.3873 7.19688 17.5335 7.3163 17.657C7.43573 17.7805 7.57879 17.8787 7.73697 17.9457C7.89515 18.0127 8.06519 18.0471 8.23698 18.047C8.40876 18.0469 8.57875 18.0121 8.73683 17.9449C8.89491 17.8777 9.03782 17.7793 9.15706 17.6556C9.2763 17.532 9.36941 17.3856 9.43085 17.2251C9.49229 17.0647 9.5208 16.8936 9.51468 16.7219L9.51193 16.6533C10.5354 16.8217 11.5848 16.7271 12.5617 16.3785L12.5396 16.6804C12.5278 16.8515 12.5507 17.0233 12.6067 17.1854C12.6628 17.3476 12.7509 17.4968 12.8658 17.6242C12.9807 17.7516 13.1201 17.8546 13.2756 17.927C13.4312 17.9994 13.5997 18.0397 13.7711 18.0456C13.9426 18.0515 14.1135 18.0229 14.2737 17.9614C14.4338 17.8998 14.5799 17.8067 14.7034 17.6875C14.8268 17.5684 14.9249 17.4256 14.992 17.2676C15.0591 17.1097 15.0937 16.9399 15.0937 16.7684V14.7045C16.1488 13.5585 16.7344 12.0577 16.7344 10.5C16.7344 8.94236 16.1488 7.44161 15.0937 6.2956V4.04553ZM7.0158 14.8495C5.89175 13.9539 5.15847 12.6575 4.96997 11.2327C4.78147 9.80785 5.15241 8.36541 6.00489 7.20828C6.14096 7.69034 6.43423 8.11309 6.83808 8.40939C7.07072 8.58083 7.20312 8.87627 7.19217 9.20025L7.0158 14.8495ZM12.6148 15.6538C11.6275 16.0731 10.5367 16.185 9.48482 15.975L9.21412 9.19918C9.20325 8.87619 9.33557 8.58075 9.56788 8.4093C9.74752 8.27703 9.90679 8.11914 10.0406 7.94066C10.338 7.54267 10.4991 7.05937 10.5 6.56253V4.92749C11.0188 4.92527 11.5352 4.99739 12.0335 5.14167C11.8887 6.10611 11.8148 7.07988 11.8125 8.05513V11.4844C11.8125 11.5714 11.8471 11.6549 11.9086 11.7164C11.9701 11.778 12.0536 11.8125 12.1406 11.8125H12.8962L12.6148 15.6538ZM14.4375 16.7684C14.4373 16.9334 14.3717 17.0915 14.255 17.2082C14.1384 17.3249 13.9802 17.3905 13.8152 17.3907C13.73 17.3907 13.6457 17.3732 13.5675 17.3393C13.4893 17.3054 13.419 17.2558 13.3607 17.1936C13.3025 17.1313 13.2577 17.0578 13.2291 16.9776C13.2004 16.8973 13.1886 16.8121 13.1942 16.727L13.5765 11.5084C13.5798 11.4635 13.5738 11.4183 13.5589 11.3757C13.5439 11.3331 13.5203 11.2941 13.4896 11.2611C13.4589 11.228 13.4218 11.2017 13.3804 11.1836C13.3391 11.1656 13.2944 11.1563 13.2493 11.1563H12.4688V8.05513C12.4689 6.65078 12.6227 5.25066 12.9273 3.87974C12.9681 3.69592 13.0753 3.53363 13.2283 3.42398C13.3814 3.31433 13.5696 3.26506 13.7567 3.2856C13.9439 3.30615 14.1169 3.39507 14.2425 3.53531C14.3681 3.67555 14.4376 3.85724 14.4375 4.04553V16.7684ZM16.0781 10.5C16.0787 11.6271 15.7353 12.7275 15.0937 13.6541V7.34593C15.7353 8.2726 16.0787 9.37298 16.0781 10.5Z" fill="white"/>
<path d="M7.21875 2.625H7.875V6.23438H7.21875V2.625Z" fill="white"/>
<path d="M8.53125 2.625H9.1875V6.23438H8.53125V2.625Z" fill="white"/>
</svg>
