<svg width="9" height="9" viewBox="0 0 9 9" fill="none" xmlns="http://www.w3.org/2000/svg">
<path d="M7.67913 3.598C7.84979 3.598 7.99379 3.65667 8.11113 3.774C8.22846 3.88067 8.28713 4.01933 8.28713 4.19C8.28713 4.36067 8.22846 4.50467 8.11113 4.622C7.99379 4.72867 7.84979 4.782 7.67913 4.782H4.97513V7.486C4.97513 7.65667 4.91646 7.80067 4.79913 7.918C4.69246 8.03533 4.55379 8.094 4.38313 8.094C4.21246 8.094 4.06846 8.03533 3.95113 7.918C3.84446 7.80067 3.79113 7.65667 3.79113 7.486V4.782H1.08713C0.916458 4.782 0.772458 4.72333 0.655125 4.606C0.537792 4.48867 0.479125 4.35 0.479125 4.19C0.479125 4.01933 0.537792 3.88067 0.655125 3.774C0.772458 3.65667 0.916458 3.598 1.08713 3.598H3.79113V0.894C3.79113 0.723333 3.84446 0.579333 3.95113 0.462C4.06846 0.344666 4.21246 0.285999 4.38313 0.285999C4.55379 0.285999 4.69246 0.344666 4.79913 0.462C4.91646 0.579333 4.97513 0.723333 4.97513 0.894V3.598H7.67913Z" fill="white"/>
</svg>
