<svg width="18" height="18" viewBox="0 0 18 18" fill="none" xmlns="http://www.w3.org/2000/svg">
<path d="M9 18C4.03724 18 0 13.9628 0 9C0 4.03724 4.03724 0 9 0C13.9628 0 18 4.03724 18 9C18 13.9628 13.9628 18 9 18ZM13.2802 9.96975L9.53026 6.21974C9.38401 6.07349 9.19202 5.99998 9 5.99998C8.80798 5.99998 8.61599 6.07349 8.46974 6.21974L4.71976 9.96975C4.42652 10.263 4.42652 10.737 4.71976 11.0302C5.013 11.3235 5.48701 11.3235 5.78025 11.0302L9 7.81049L12.2198 11.0302C12.513 11.3235 12.987 11.3235 13.2802 11.0302C13.5735 10.737 13.5735 10.263 13.2802 9.96975Z" fill="#670000"/>
</svg>
