<svg width="13" height="20" viewBox="0 0 13 20" fill="none" xmlns="http://www.w3.org/2000/svg">
<path d="M6.28277 17.5714C6.24164 17.5714 6.201 17.5625 6.16363 17.5454C6.12625 17.5282 6.09302 17.5032 6.0662 17.472C6.0582 17.4629 5.25307 16.5252 4.25023 15.1638C2.3114 12.5352 9.22206e-07 8.86042 9.22206e-07 6.28303C-0.000721018 4.95052 0.422448 3.65232 1.2083 2.5762C1.99415 1.50008 3.10195 0.701845 4.37145 0.296937C5.64095 -0.107971 7.00635 -0.0985528 8.27015 0.323828C9.53395 0.746209 10.6306 1.55965 11.4016 2.64651C11.4454 2.70838 11.4628 2.78511 11.45 2.85983C11.4372 2.93455 11.3953 3.00113 11.3334 3.04493C11.2715 3.08873 11.1948 3.10616 11.1201 3.09338C11.0454 3.0806 10.9788 3.03866 10.935 2.97679C10.2341 1.989 9.2372 1.24975 8.08843 0.865958C6.93967 0.482162 5.6986 0.473712 4.54471 0.84183C3.39083 1.20995 2.38394 1.93555 1.66967 2.9137C0.955405 3.89185 0.570779 5.07185 0.571422 6.28303C0.571422 8.17272 2.04112 11.2064 4.70994 14.8258C5.39221 15.7518 5.98049 16.478 6.28134 16.8426C6.58362 16.478 7.17162 15.752 7.85418 14.8261C9.36301 12.7801 11.2776 9.84812 11.8364 7.49158C11.844 7.45402 11.8591 7.41837 11.8807 7.38675C11.9024 7.35513 11.9302 7.32818 11.9624 7.30752C11.9947 7.28687 12.0308 7.27291 12.0686 7.26649C12.1064 7.26007 12.1451 7.26132 12.1824 7.27015C12.2196 7.27899 12.2548 7.29524 12.2857 7.31794C12.3165 7.34063 12.3425 7.36931 12.3621 7.40225C12.3817 7.4352 12.3944 7.47175 12.3996 7.50972C12.4047 7.5477 12.4022 7.58632 12.3921 7.6233C11.8116 10.0738 9.85415 13.0766 8.31531 15.1638C7.31247 16.5252 6.50734 17.4629 6.49934 17.472C6.47252 17.5032 6.43929 17.5282 6.40192 17.5454C6.36454 17.5625 6.3239 17.5714 6.28277 17.5714Z" fill="#808285"/>
<path d="M12.2283 5.78732C12.1562 5.78753 12.0867 5.76047 12.0337 5.71156C11.9807 5.66265 11.9481 5.59551 11.9426 5.52361C11.9103 5.26527 11.8576 5.00989 11.7849 4.75991C11.7772 4.73403 11.7734 4.70718 11.7735 4.68019C11.7727 4.60923 11.7984 4.54053 11.8455 4.48747C11.8927 4.43441 11.9579 4.4008 12.0284 4.39317C12.099 4.38554 12.1699 4.40444 12.2272 4.44619C12.2846 4.48795 12.3244 4.54957 12.3389 4.61905C12.4181 4.8963 12.4755 5.17936 12.5103 5.46561C12.5115 5.47709 12.5122 5.48863 12.5123 5.50018C12.5127 5.57591 12.483 5.64869 12.4297 5.70253C12.3765 5.75637 12.304 5.78687 12.2283 5.78732Z" fill="#808285"/>
<path d="M6.2826 10.7753C5.39864 10.7753 4.53454 10.5131 3.79955 10.022C3.06457 9.53093 2.49172 8.83291 2.15344 8.01624C1.81517 7.19957 1.72666 6.30093 1.89911 5.43395C2.07156 4.56698 2.49723 3.77062 3.12228 3.14557C3.74733 2.52051 4.5437 2.09485 5.41067 1.9224C6.27764 1.74995 7.17628 1.83845 7.99295 2.17673C8.80962 2.51501 9.50764 3.08786 9.99874 3.82284C10.4898 4.55782 10.752 5.42193 10.752 6.30588C10.7506 7.49082 10.2793 8.62683 9.44142 9.4647C8.60354 10.3026 7.46753 10.7739 6.2826 10.7753ZM6.2826 2.40823C5.51165 2.40823 4.75801 2.63684 4.11699 3.06517C3.47597 3.49349 2.97636 4.10228 2.68134 4.81456C2.38632 5.52683 2.30915 6.31059 2.45957 7.06673C2.61 7.82286 2.98127 8.51741 3.52644 9.06254C4.0716 9.60766 4.76618 9.97888 5.52232 10.1293C6.27847 10.2796 7.06223 10.2024 7.77448 9.90732C8.48673 9.61225 9.09549 9.1126 9.52376 8.47155C9.95204 7.83049 10.1806 7.07684 10.1805 6.30588C10.1793 5.27251 9.76816 4.28183 9.03743 3.55114C8.30669 2.82046 7.31598 2.40944 6.2826 2.40823Z" fill="#808285"/>
<path d="M9.68283 9.02878C9.63736 9.02881 9.59253 9.018 9.55208 8.99723C9.51163 8.97645 9.47672 8.94633 9.45026 8.90935C9.0965 8.4082 8.62824 7.99872 8.08441 7.71493C7.54058 7.43113 6.93686 7.28122 6.32345 7.27766C6.32041 7.27794 6.31735 7.27794 6.3143 7.27766H6.24116C5.62774 7.28122 5.02403 7.43113 4.4802 7.71493C3.93636 7.99872 3.46811 8.4082 3.11435 8.90935C3.07 8.97026 3.00339 9.01119 2.92901 9.02323C2.85464 9.03527 2.77852 9.01744 2.71722 8.97362C2.65593 8.92981 2.61442 8.86356 2.60173 8.78929C2.58905 8.71502 2.60622 8.63874 2.6495 8.57707C3.05859 8.00583 3.59634 7.53884 4.21928 7.21384C4.84222 6.88885 5.53288 6.71496 6.23545 6.70624H6.24431H6.33002C7.03259 6.71496 7.72325 6.88885 8.34619 7.21384C8.96913 7.53884 9.50687 8.00583 9.91597 8.57707C9.93777 8.60761 9.95334 8.64215 9.9618 8.6787C9.97025 8.71526 9.97142 8.75313 9.96524 8.79014C9.95906 8.82715 9.94564 8.86258 9.92577 8.89441C9.90589 8.92624 9.87994 8.95384 9.8494 8.97564C9.8009 9.01053 9.74258 9.02914 9.68283 9.02878Z" fill="#808285"/>
<path d="M6.28253 7.2807C5.93403 7.28075 5.59334 7.17746 5.30355 6.98389C5.01375 6.79031 4.78787 6.51515 4.65447 6.1932C4.52107 5.87124 4.48613 5.51696 4.55409 5.17515C4.62204 4.83334 4.78983 4.51936 5.03623 4.27292C5.28264 4.02647 5.59659 3.85863 5.93839 3.79062C6.28019 3.72261 6.63448 3.75749 6.95645 3.89084C7.27843 4.02419 7.55363 4.25003 7.74725 4.53979C7.94087 4.82955 8.04422 5.17022 8.04422 5.51872C8.04376 5.98584 7.85802 6.4337 7.52774 6.76402C7.19747 7.09435 6.74964 7.28017 6.28253 7.2807ZM6.28253 4.32845C6.04703 4.3284 5.81681 4.39818 5.62098 4.52898C5.42515 4.65978 5.27251 4.84571 5.18237 5.06327C5.09222 5.28083 5.06862 5.52023 5.11455 5.7512C5.16048 5.98217 5.27387 6.19434 5.44039 6.36086C5.60691 6.52738 5.81907 6.64077 6.05004 6.6867C6.28102 6.73263 6.52042 6.70903 6.73798 6.61888C6.95554 6.52874 7.14147 6.37609 7.27227 6.18027C7.40307 5.98444 7.47285 5.75421 7.4728 5.51872C7.47242 5.20316 7.34689 4.90063 7.12375 4.67749C6.90062 4.45435 6.59809 4.32883 6.28253 4.32845Z" fill="#808285"/>
<path d="M6.28276 20C3.05852 20 0.532837 18.8077 0.532837 17.2858C0.532837 16.0901 2.06482 15.0795 4.43564 14.7115C4.47302 14.7051 4.51131 14.7061 4.54828 14.7146C4.58525 14.7231 4.62016 14.7388 4.65097 14.761C4.68178 14.7831 4.70788 14.8111 4.72774 14.8434C4.74761 14.8758 4.76083 14.9117 4.76666 14.9492C4.77248 14.9867 4.77078 15.0249 4.76166 15.0618C4.75254 15.0986 4.73618 15.1332 4.71353 15.1636C4.69088 15.1941 4.6624 15.2197 4.62975 15.239C4.5971 15.2583 4.56093 15.2709 4.52335 15.2761C2.51138 15.5889 1.10426 16.4152 1.10426 17.2858C1.10426 18.3206 3.18509 19.4286 6.28276 19.4286C9.38043 19.4286 11.4613 18.3206 11.4613 17.2858C11.4613 16.4152 10.0553 15.5889 8.04216 15.2761C8.00458 15.2709 7.96841 15.2583 7.93576 15.239C7.90311 15.2197 7.87463 15.1941 7.85198 15.1636C7.82934 15.1332 7.81297 15.0986 7.80385 15.0618C7.79473 15.0249 7.79303 14.9867 7.79886 14.9492C7.80468 14.9117 7.81791 14.8758 7.83777 14.8434C7.85763 14.8111 7.88373 14.7831 7.91455 14.761C7.94536 14.7388 7.98027 14.7231 8.01724 14.7146C8.05421 14.7061 8.0925 14.7051 8.12987 14.7115C10.5013 15.0795 12.0327 16.0901 12.0327 17.2858C12.0327 18.8077 9.507 20 6.28276 20Z" fill="#808285"/>
</svg>
