<svg width="24" height="24" viewBox="0 0 24 24" fill="none" xmlns="http://www.w3.org/2000/svg">
<path d="M0.00383242 22.5106C0.0318259 22.9145 0.211842 23.2927 0.507605 23.569C0.803367 23.8454 1.19289 23.9994 1.59768 24C1.63518 24 1.67293 23.9987 1.71073 23.9961C2.02642 23.9742 2.32853 23.8592 2.57885 23.6656C2.82917 23.472 3.01646 23.2085 3.11703 22.9085C3.21761 22.6084 3.22696 22.2853 3.1439 21.98C3.06084 21.6746 2.88909 21.4007 2.65039 21.193C2.41168 20.9852 2.11673 20.853 1.80284 20.8128C1.48894 20.7727 1.1702 20.8266 0.886919 20.9676C0.603637 21.1087 0.368538 21.3305 0.21135 21.6052C0.0541619 21.8798 -0.0180546 22.1949 0.00383242 22.5106V22.5106ZM0.996533 21.875C1.06532 21.7955 1.14919 21.7305 1.24328 21.6837C1.33737 21.6368 1.43981 21.6091 1.54468 21.6021C1.56358 21.6007 1.58243 21.6001 1.60123 21.6001C1.78388 21.6004 1.96095 21.6631 2.10301 21.7779C2.24507 21.8927 2.34357 22.0527 2.38213 22.2312C2.4207 22.4098 2.39701 22.5961 2.315 22.7593C2.233 22.9225 2.09761 23.0528 1.93135 23.1284C1.76508 23.204 1.57795 23.2204 1.40105 23.175C1.22414 23.1295 1.06812 23.0249 0.958916 22.8785C0.849708 22.7321 0.793887 22.5527 0.80073 22.3702C0.807573 22.1876 0.876668 22.013 0.996533 21.8751V21.875Z" fill="#808285"/>
<path d="M3.59888 20.8012C3.8198 20.8012 3.99888 20.6221 3.99888 20.4012C3.99888 20.1802 3.8198 20.0012 3.59888 20.0012C3.37797 20.0012 3.19888 20.1802 3.19888 20.4012C3.19888 20.6221 3.37797 20.8012 3.59888 20.8012Z" fill="#808285"/>
<path d="M4.73023 19.6698C4.95114 19.6698 5.13023 19.4907 5.13023 19.2698C5.13023 19.0489 4.95114 18.8698 4.73023 18.8698C4.50932 18.8698 4.33023 19.0489 4.33023 19.2698C4.33023 19.4907 4.50932 19.6698 4.73023 19.6698Z" fill="#808285"/>
<path d="M5.57878 17.8556C5.52284 17.9115 5.48474 17.9828 5.4693 18.0604C5.45386 18.138 5.46178 18.2184 5.49205 18.2915C5.52233 18.3646 5.57359 18.4271 5.63938 18.471C5.70516 18.515 5.78249 18.5385 5.86161 18.5385C5.94072 18.5385 6.01806 18.515 6.08384 18.471C6.14962 18.4271 6.20089 18.3646 6.23117 18.2915C6.26144 18.2184 6.26936 18.138 6.25392 18.0604C6.23848 17.9828 6.20038 17.9115 6.14443 17.8556C6.06942 17.7806 5.96769 17.7385 5.86161 17.7385C5.75553 17.7385 5.6538 17.7806 5.57878 17.8556Z" fill="#808285"/>
<path d="M6.70998 16.7242C6.65405 16.7802 6.61595 16.8514 6.60052 16.929C6.58509 17.0066 6.59301 17.087 6.62329 17.1601C6.65356 17.2332 6.70483 17.2957 6.77061 17.3396C6.83639 17.3836 6.91372 17.4071 6.99283 17.4071C7.07195 17.4071 7.14928 17.3836 7.21506 17.3396C7.28084 17.2957 7.33211 17.2332 7.36239 17.1601C7.39266 17.087 7.40058 17.0066 7.38515 16.929C7.36972 16.8514 7.33162 16.7802 7.27569 16.7242C7.23854 16.6871 7.19444 16.6576 7.14591 16.6375C7.09738 16.6174 7.04537 16.6071 6.99283 16.6071C6.9403 16.6071 6.88829 16.6174 6.83976 16.6375C6.79123 16.6576 6.74713 16.6871 6.70998 16.7242Z" fill="#808285"/>
<path d="M23.9076 0.14429C23.8559 0.0820454 23.7864 0.0369645 23.7085 0.0150033C23.6306 -0.00695786 23.5479 -0.0047657 23.4712 0.0212901L3.47124 6.82129C3.40672 6.84323 3.34888 6.88128 3.30319 6.93184C3.25751 6.9824 3.2255 7.04379 3.2102 7.11019C3.19489 7.17659 3.19681 7.2458 3.21576 7.31126C3.23472 7.37671 3.27008 7.43624 3.31849 7.48419L6.32619 10.4632L8.41739 17.3167C8.43887 17.3875 8.47957 17.4509 8.53495 17.4999C8.59033 17.5489 8.65822 17.5815 8.73107 17.5942C8.80391 17.6069 8.87885 17.5991 8.94753 17.5718C9.01622 17.5444 9.07595 17.4985 9.12009 17.4391C9.12189 17.4369 9.12374 17.4349 9.12549 17.4325L10.881 14.975L13.7185 17.7855C13.7934 17.8597 13.8946 17.9013 14 17.9013C14.0186 17.9013 14.0371 17.9 14.0555 17.8974C14.1165 17.8888 14.1747 17.8663 14.2256 17.8316C14.2765 17.7968 14.3186 17.7508 14.3488 17.6971L23.9488 0.59604C23.9885 0.525425 24.0058 0.444426 23.9984 0.36376C23.9911 0.283094 23.9594 0.206563 23.9076 0.14429ZM19.9435 2.06564L6.74299 9.74999L4.34069 7.37054L19.9435 2.06564ZM20.0488 2.92999L8.96774 12.4721C8.88968 12.5393 8.84056 12.6341 8.83064 12.7366L8.59564 15.1601L7.15424 10.4363L20.0488 2.92999ZM9.34209 15.7528L9.54569 13.6521L10.3052 14.4044L9.34209 15.7528ZM13.9083 16.8472L9.81789 12.7957L22.1384 2.18644L13.9083 16.8472Z" fill="#808285"/>
</svg>
