<svg width="32" height="32" viewBox="0 0 32 32" fill="none" xmlns="http://www.w3.org/2000/svg">
<path d="M31.8047 30.862L22.068 21.1253C24.0904 18.8799 25.3334 15.9193 25.3334 12.6666C25.3333 5.68231 19.651 0 12.6667 0C5.68231 0 0 5.68231 0 12.6667C0 19.651 5.68231 25.3334 12.6667 25.3334C15.9194 25.3334 18.8799 24.0904 21.1254 22.068L30.862 31.8047C30.9922 31.9348 31.1628 32 31.3334 32C31.5039 32 31.6745 31.9348 31.8047 31.8047C32.0651 31.5442 32.0651 31.1223 31.8047 30.862ZM12.6667 24C6.418 24 1.33337 18.916 1.33337 12.6667C1.33337 6.41737 6.418 1.33331 12.6667 1.33331C18.9154 1.33331 24 6.41731 24 12.6667C24 18.916 18.9154 24 12.6667 24Z" fill="#808285"/>
<path d="M7.65257 13.3489C7.56752 13.4723 7.5986 13.6413 7.72202 13.7264C7.84544 13.8114 8.01446 13.7804 8.09951 13.6569C8.10131 13.6544 8.10304 13.6517 8.10474 13.6491C9.04815 12.2211 10.6454 11.3622 12.3569 11.3625C12.5068 11.3625 12.6283 11.2409 12.6283 11.091C12.6283 10.9412 12.5068 10.8196 12.3569 10.8196C10.4635 10.8192 8.69637 11.7693 7.65257 13.3489Z" fill="#808285"/>
<path d="M21.0986 16.7905H19.4702V16.4627C19.4765 14.7043 18.7595 13.0208 17.4873 11.807C17.3819 11.7004 17.2101 11.6994 17.1035 11.8048C16.9969 11.9102 16.9959 12.082 17.1013 12.1886C17.1045 12.1919 17.1077 12.195 17.1111 12.1981C18.2763 13.31 18.9331 14.8521 18.9274 16.4627V16.7905H6.44266V16.4627C6.44626 13.1977 9.09217 10.5518 12.3572 10.5482H13.0129C13.5171 10.5478 14.0192 10.6117 14.5073 10.7382C14.6509 10.7811 14.8021 10.6996 14.8451 10.556C14.8881 10.4124 14.8065 10.2611 14.6629 10.2182C14.6563 10.2162 14.6496 10.2145 14.6429 10.213C14.2681 10.1163 13.8853 10.0535 13.4992 10.0255V9.19115C13.4992 9.04126 13.3777 8.91974 13.2278 8.91974H12.1422C11.9923 8.91974 11.8708 9.04126 11.8708 9.19115V10.0255C8.50509 10.2832 5.90426 13.0871 5.89982 16.4627V16.7905H4.27141C4.12152 16.7905 4 16.9121 4 17.0619C4 17.2118 4.12152 17.3334 4.27141 17.3334H21.0986C21.2485 17.3334 21.3701 17.2118 21.3701 17.0619C21.3701 16.9121 21.2485 16.7905 21.0986 16.7905ZM12.4136 9.46255H12.9564V10.0054H12.4136V9.46255Z" fill="#808285"/>
<path d="M15.4897 8.71423C15.7423 8.93977 15.9418 9.11781 15.9418 9.48123C15.9418 9.84464 15.7423 10.0227 15.4897 10.2496C15.1056 10.518 14.8707 10.952 14.8562 11.4204C14.8562 11.5703 14.9777 11.6918 15.1276 11.6918C15.2775 11.6918 15.399 11.5703 15.399 11.4204C15.399 11.057 15.5985 10.879 15.8512 10.6534C16.2355 10.3846 16.4704 9.95005 16.4846 9.48123C16.4704 9.01247 16.2355 8.57802 15.8512 8.30929C15.5985 8.08375 15.399 7.90571 15.399 7.54257C15.399 7.17942 15.5985 7.00165 15.8512 6.77611C16.2355 6.50766 16.4704 6.07334 16.4846 5.60472C16.4846 5.45484 16.3631 5.33331 16.2132 5.33331C16.0634 5.33331 15.9418 5.45484 15.9418 5.60472C15.9418 5.96759 15.7423 6.14536 15.4897 6.3709C15.1053 6.63946 14.8704 7.07388 14.8562 7.54257C14.8705 8.01122 15.1054 8.44561 15.4897 8.71423Z" fill="#808285"/>
<path d="M17.1182 8.71423C17.3709 8.93977 17.5704 9.11781 17.5704 9.48123C17.5704 9.84464 17.3709 10.024 17.1182 10.2485C16.7338 10.5172 16.4989 10.9516 16.4847 11.4204C16.4847 11.5703 16.6063 11.6918 16.7561 11.6918C16.906 11.6918 17.0276 11.5703 17.0276 11.4204C17.0276 11.057 17.227 10.879 17.4797 10.6534C17.8641 10.3846 18.0989 9.95005 18.1132 9.48123C18.0989 9.01247 17.8641 8.57802 17.4797 8.30929C17.227 8.08375 17.0276 7.90571 17.0276 7.54257C17.0276 7.17942 17.227 7.00165 17.4797 6.77611C17.8641 6.50766 18.0989 6.07334 18.1132 5.60472C18.1132 5.45484 17.9917 5.33331 17.8418 5.33331C17.6919 5.33331 17.5704 5.45484 17.5704 5.60472C17.5704 5.96759 17.3709 6.14536 17.1182 6.3709C16.7338 6.63946 16.4989 7.07388 16.4847 7.54257C16.4991 8.01122 16.7339 8.44561 17.1182 8.71423Z" fill="#808285"/>
<path d="M18.7467 8.71423C18.9994 8.93977 19.1989 9.11781 19.1989 9.48123C19.1989 9.84464 18.9994 10.024 18.7467 10.2485C18.3623 10.5172 18.1275 10.9516 18.1133 11.4204C18.1133 11.5703 18.2348 11.6918 18.3847 11.6918C18.5346 11.6918 18.6561 11.5703 18.6561 11.4204C18.6561 11.057 18.8556 10.879 19.1083 10.6534C19.4926 10.3846 19.7274 9.95005 19.7417 9.48123C19.7274 9.01247 19.4926 8.57802 19.1083 8.30929C18.8556 8.08375 18.6561 7.90571 18.6561 7.54257C18.6561 7.17942 18.8556 7.00165 19.1083 6.77611C19.4926 6.50766 19.7275 6.07334 19.7417 5.60472C19.7417 5.45484 19.6202 5.33331 19.4703 5.33331C19.3204 5.33331 19.1989 5.45484 19.1989 5.60472C19.1989 5.96759 18.9994 6.14536 18.7467 6.3709C18.3623 6.63946 18.1275 7.07388 18.1133 7.54257C18.1276 8.01122 18.3624 8.44561 18.7467 8.71423Z" fill="#808285"/>
</svg>
