<svg id="Layer_1" data-name="Layer 1" xmlns="http://www.w3.org/2000/svg" viewBox="0 0 30 30"><defs><style>.cls-1{fill:#ffffff;}</style></defs><path class="cls-1" d="M15,27A12,12,0,1,1,27,15,12,12,0,0,1,15,27ZM15,4A11,11,0,1,0,26,15,11,11,0,0,0,15,4Z"/><circle class="cls-1" cx="14.82" cy="9.3" r="3.62"/><path class="cls-1" d="M24.61,13.77a.48.48,0,0,1-.48.49H22.67v1.46a.49.49,0,0,1-1,0V14.26H20.24a.49.49,0,0,1,0-1H21.7V11.83a.49.49,0,1,1,1,0v1.45h1.46A.48.48,0,0,1,24.61,13.77Z"/><path class="cls-1" d="M22.19,21.07l-14.75.15a7.38,7.38,0,0,1,14.75-.15Z"/></svg>