<svg id="Layer_1" data-name="Layer 1" xmlns="http://www.w3.org/2000/svg" viewBox="0 0 30 30"><defs><style>.cls-1{fill:#2b2b2b;}</style></defs><path class="cls-1" d="M15,27A12,12,0,1,1,27,15,12,12,0,0,1,15,27ZM15,4.85A10.15,10.15,0,1,0,25.15,15,10.16,10.16,0,0,0,15,4.85Z"/><circle class="cls-1" cx="19.74" cy="10.49" r="1.25"/><path class="cls-1" d="M15,22.74a7.74,7.74,0,1,1,1.66-15.3.92.92,0,0,1-.4,1.8A5.89,5.89,0,1,0,20.89,15a5.77,5.77,0,0,0-.1-1.1.92.92,0,0,1,.73-1.08.91.91,0,0,1,1.08.73A7.83,7.83,0,0,1,22.74,15,7.75,7.75,0,0,1,15,22.74Z"/></svg>