<svg id="Layer_1" data-name="Layer 1" xmlns="http://www.w3.org/2000/svg" viewBox="0 0 30 30"><defs><style>.cls-1{fill:#F8EDD5;}</style></defs><path class="cls-1" d="M9.58,2.77l-.66,0a1,1,0,0,1,.37-.08A.88.88,0,0,1,9.58,2.77Z"/><path class="cls-1" d="M15.32,9.63a.94.94,0,0,1-.67.27A.93.93,0,0,1,14,9.64L10.24,5.93v20.4a.95.95,0,1,1-1.89,0V5.93L4.61,9.64A.95.95,0,0,1,3.28,8.29L8.59,3,8.66,3a.82.82,0,0,1,.25-.16h0l.66,0a.68.68,0,0,1,.21.1l.22.19,0,0,5.27,5.21A1,1,0,0,1,15.32,9.63Z"/><path class="cls-1" d="M8.91,2.81A.82.82,0,0,0,8.66,3l.16-.16Z"/><path class="cls-1" d="M9.79,2.87a.68.68,0,0,0-.21-.1h.1Z"/><path class="cls-1" d="M21.44,26.94a1,1,0,0,1-.73.34A1,1,0,0,1,20,27a1.07,1.07,0,0,0,1.44,0Z"/><path class="cls-1" d="M26.72,21.71l-5.27,5.21v0A1.07,1.07,0,0,1,20,27l0,0-5.27-5.22A.95.95,0,0,1,16,20.36l3.74,3.71V3.67a.95.95,0,1,1,1.89,0v20.4l3.74-3.71a.95.95,0,0,1,1.33,1.35Z"/></svg>