<svg id="Layer_1" data-name="Layer 1" xmlns="http://www.w3.org/2000/svg" viewBox="0 0 30 30"><defs><style>.cls-1{fill:#2b2b2b;}</style></defs><path class="cls-1" d="M21.15,20.67H9.06a2.59,2.59,0,0,1-2.59-2.59H23.74A2.59,2.59,0,0,1,21.15,20.67Z"/><path class="cls-1" d="M13.56,7.7l-.26-.92.27-.08a.49.49,0,0,0-.26-.94l-1.48.42a.48.48,0,0,0,.13,1l.13,0L12.36,7l.26.93A7.36,7.36,0,0,0,8,16.9l14.19-4A7.37,7.37,0,0,0,13.56,7.7ZM13,10.85a4.7,4.7,0,0,0-2.55,2.52.49.49,0,0,1-.45.29.43.43,0,0,1-.19,0A.48.48,0,0,1,9.52,13a5.71,5.71,0,0,1,3.09-3,.48.48,0,1,1,.36.9Z"/><path class="cls-1" d="M15,27A12,12,0,1,1,27,15,12,12,0,0,1,15,27ZM15,4A11,11,0,1,0,26,15,11,11,0,0,0,15,4Z"/></svg>