<svg id="Layer_1" data-name="Layer 1" xmlns="http://www.w3.org/2000/svg" viewBox="0 0 30 30"><defs><style>.cls-1{fill:#2b2b2b;}</style></defs><path class="cls-1" d="M22.6,27H7.4a4.16,4.16,0,0,1-4.15-4.16v-.9h23.5v.9A4.16,4.16,0,0,1,22.6,27ZM5.24,23.75A2.35,2.35,0,0,0,7.4,25.19H22.6a2.35,2.35,0,0,0,2.16-1.44Z"/><path class="cls-1" d="M24.75,14.34a10.21,10.21,0,0,0-8.95-7.4,2.75,2.75,0,0,0,.25-.64,2.68,2.68,0,1,0-5.23-1.21l-.4,2L9,5.79l-.08-.07a2.72,2.72,0,0,0-1.74-.63,2.82,2.82,0,0,0-.86.14A2.66,2.66,0,0,0,4.79,6.58,2.68,2.68,0,0,0,7.2,10.44h0A10.93,10.93,0,0,0,6.09,12.1a10.1,10.1,0,0,0-.92,7.72l.25.88L25,15.21ZM12.59,5.48a.86.86,0,0,1,.85-.67l.19,0a.88.88,0,0,1,.68.86,1.5,1.5,0,0,1,0,.2.92.92,0,0,1-.64.64l-1.34.38ZM6.37,8.05a.86.86,0,0,1,0-.67.89.89,0,0,1,.51-.44.86.86,0,0,1,.27-.05.94.94,0,0,1,.6.23l1,1-1.35.52A.88.88,0,0,1,6.37,8.05Zm.34,10.4a8.26,8.26,0,0,1,1-5.47,8.37,8.37,0,0,1,2.11-2.47A8.53,8.53,0,0,1,12.7,9a8.35,8.35,0,0,1,10,4.94Z"/><path class="cls-1" d="M8.55,15.81a.9.9,0,0,1-.84-1.26,7.45,7.45,0,0,1,4-4,.89.89,0,0,1,1.17.49.91.91,0,0,1-.49,1.18,5.62,5.62,0,0,0-3,3A.91.91,0,0,1,8.55,15.81Z"/></svg>