<svg id="Layer_1" data-name="Layer 1" xmlns="http://www.w3.org/2000/svg" viewBox="0 0 30 30"><defs><style>.cls-1{fill:#ffffff;}</style></defs><path class="cls-1" d="M20,27H10a3.7,3.7,0,0,1-3.7-3.7V16.93a3.7,3.7,0,0,1,3.7-3.7H20a3.7,3.7,0,0,1,3.7,3.7V23.3A3.7,3.7,0,0,1,20,27ZM10,15.07a1.87,1.87,0,0,0-1.86,1.86V23.3A1.86,1.86,0,0,0,10,25.15H20a1.86,1.86,0,0,0,1.86-1.85V16.93A1.87,1.87,0,0,0,20,15.07Z"/><path class="cls-1" d="M19.19,12.35a.92.92,0,0,1-.92-.92V8.26a3.42,3.42,0,0,0-6.84,0v3.17a.92.92,0,1,1-1.84,0V8.26a5.26,5.26,0,0,1,10.52,0v3.17A.92.92,0,0,1,19.19,12.35Z"/><path class="cls-1" d="M15,21.75a.92.92,0,0,1-.92-.92V19.35a.92.92,0,1,1,1.84,0v1.48A.92.92,0,0,1,15,21.75Z"/></svg>