<svg version="1.2" xmlns="http://www.w3.org/2000/svg" viewBox="0 0 30 30" width="30" height="30">
	<title>Icon-05-svg</title>
	<style>
		.s0 { fill: #ffffff } 
	</style>
	<path id="Layer" fill-rule="evenodd" class="s0" d="m18.9 27h-10q-0.7 0-1.4-0.3-0.7-0.3-1.2-0.8-0.5-0.5-0.8-1.2-0.3-0.7-0.3-1.4v-6.4q0-0.7 0.3-1.4 0.3-0.7 0.8-1.2 0.5-0.5 1.2-0.8 0.7-0.3 1.4-0.3h10q0.7 0 1.4 0.3 0.7 0.3 1.2 0.8 0.5 0.5 0.8 1.2 0.3 0.7 0.3 1.4v6.4q0 0.7-0.3 1.4-0.3 0.7-0.8 1.2-0.5 0.5-1.2 0.8-0.7 0.3-1.4 0.3zm-10-11.9q-0.4 0-0.7 0.1-0.4 0.1-0.6 0.4-0.3 0.3-0.5 0.6-0.1 0.4-0.1 0.7v6.4q0 0.4 0.1 0.7 0.2 0.4 0.5 0.6 0.2 0.3 0.6 0.4 0.3 0.2 0.7 0.2l10-0.1q0.4 0.1 0.7-0.1 0.4-0.1 0.6-0.4 0.3-0.2 0.4-0.6 0.2-0.3 0.2-0.7v-6.4q0-0.3-0.2-0.7-0.1-0.3-0.4-0.6-0.2-0.2-0.6-0.4-0.3-0.1-0.7-0.1z"/>
	<path id="Layer" class="s0" d="m23.9 12.3q-0.2 0-0.4 0-0.1-0.1-0.3-0.2-0.1-0.1-0.2-0.3 0-0.2 0-0.4v-3.1c-0.1-0.9-0.5-1.7-1.1-2.3-0.6-0.6-1.5-1-2.4-1-0.8 0-1.7 0.4-2.3 1-0.6 0.6-1 1.4-1.1 2.3v3.1q0 0.4-0.3 0.6-0.2 0.3-0.6 0.3-0.4 0-0.6-0.3-0.3-0.2-0.3-0.6v-3.1c0-1.4 0.5-2.8 1.5-3.8 1-0.9 2.3-1.5 3.7-1.5 1.4 0 2.8 0.6 3.8 1.5 0.9 1 1.5 2.4 1.5 3.8v3.1q0 0.2-0.1 0.4 0 0.2-0.2 0.3-0.1 0.1-0.3 0.2-0.1 0-0.3 0z"/>
	<path id="Layer" class="s0" d="m13.9 21.8q-0.2-0.1-0.4-0.1-0.1-0.1-0.3-0.2-0.1-0.1-0.2-0.3 0-0.2 0-0.4v-1.4c-0.1-0.3 0-0.6 0.2-0.8 0.2-0.2 0.4-0.3 0.7-0.3 0.2 0 0.5 0.1 0.7 0.3 0.2 0.2 0.2 0.5 0.2 0.8v1.4q0 0.2-0.1 0.4 0 0.2-0.2 0.3-0.1 0.1-0.3 0.2-0.1 0-0.3 0z"/>
</svg>