<svg id="Layer_1" data-name="Layer 1" xmlns="http://www.w3.org/2000/svg" viewBox="0 0 30 30"><defs><style>.cls-1{fill:#010101;}</style></defs><path class="cls-1" d="M23.31,27H6.69A3.69,3.69,0,0,1,3,23.31V6.69A3.7,3.7,0,0,1,6.69,3h7.42a.93.93,0,1,1,0,1.85H6.69A1.84,1.84,0,0,0,4.85,6.69V23.31a1.84,1.84,0,0,0,1.84,1.85H23.31a1.84,1.84,0,0,0,1.84-1.85v-6a.93.93,0,1,1,1.85,0v6A3.69,3.69,0,0,1,23.31,27Z"/><path class="cls-1" d="M27,4.38v8.34a.93.93,0,0,1-1.85,0V6.15l-9.5,9.5a.87.87,0,0,1-.65.27.92.92,0,0,1-.66-1.57l9.51-9.51H18.71a.92.92,0,1,1,0-1.84h6.9A1.39,1.39,0,0,1,27,4.38Z"/></svg>